<?xml version="1.0" encoding="utf-8"?>
<svg version="1.1" xmlns:xlink="http://www.w3.org/1999/xlink" width="40px" height="40px" xmlns="http://www.w3.org/2000/svg">
  <g transform="matrix(1 0 0 1 -1030 -3309 )">
    <path d="M 9.9609375 2.74849899933289  C 13.0251736111111 0.916166333110962  16.3715277777778 0  20 0  C 23.6284722222222 0  26.9748263888889 0.916166333110962  30.0390625 2.74849899933289  C 33.1032986111111 4.58083166555481  35.5295138888889 7.06693351122971  37.3177083333333 10.2068045363576  C 39.1059027777778 13.3466755614854  40 16.7756281965755  40 20.4936624416278  C 40 24.9588614631977  38.7282986111111 28.9748721369802  36.1848958333333 32.5416944629753  C 33.6414930555556 36.1085167889704  30.3559027777778 38.5768289971092  26.328125 39.9466310873916  C 25.859375 40.0355792750723  25.5121527777778 39.9733155436958  25.2864583333333 39.7598398932622  C 25.0607638888889 39.5463642428286  24.9479166666667 39.2795196797865  24.9479166666667 38.9593062041361  C 24.9479166666667 38.9059372915277  24.9522569444444 38.2254836557705  24.9609375 36.9179452968646  C 24.9696180555556 35.6104069379586  24.9739583333333 34.4140538136536  24.9739583333333 33.3288859239493  C 24.9739583333333 31.6032910829442  24.5225694444444 30.3402268178786  23.6197916666667 29.5396931287525  C 24.609375 29.4329553035357  25.4991319444444 29.2728485657105  26.2890625 29.0593729152769  C 27.0789930555556 28.8458972648432  27.8949652777778 28.4989993328886  28.7369791666667 28.0186791194129  C 29.5789930555556 27.5383589059373  30.2821180555556 26.9468534578608  30.8463541666667 26.2441627751835  C 31.4105902777778 25.5414720925061  31.8706597222222 24.607516121859  32.2265625 23.4422948632422  C 32.5824652777778 22.2770736046253  32.7604166666667 20.9384033800311  32.7604166666667 19.4262841894596  C 32.7604166666667 17.3093173226595  32.0746527777778 15.4769846564376  30.703125 13.9292861907939  C 31.3454861111111 12.3104291750056  31.2760416666667 10.4958861463198  30.4947916666667 8.48565710473649  C 30.0086805555556 8.32555036691128  29.3055555555556 8.42339337336001  28.3854166666667 8.77918612408272  C 27.4652777777778 9.13497887480542  26.6666666666667 9.5263509006004  25.9895833333333 9.95330220146764  L 25 10.5937291527685  C 23.3854166666667 10.131198576829  21.71875 9.89993328885924  20 9.89993328885924  C 18.28125 9.89993328885924  16.6145833333333 10.131198576829  15 10.5937291527685  C 14.7222222222222 10.398043139871  14.3532986111111 10.1578830331332  13.8932291666667 9.87324883255503  C 13.4331597222222 9.58861463197687  12.7083333333333 9.24616410940627  11.71875 8.84589726484323  C 10.7291666666667 8.44563042028019  9.99131944444445 8.32555036691128  9.50520833333333 8.48565710473649  C 8.72395833333333 10.4958861463198  8.65451388888889 12.3104291750056  9.296875 13.9292861907939  C 7.92534722222222 15.4769846564376  7.23958333333333 17.3093173226595  7.23958333333333 19.4262841894596  C 7.23958333333333 20.9384033800311  7.41753472222222 22.2726261952413  7.7734375 23.4289526350901  C 8.12934027777778 24.5852790749388  8.58506944444444 25.5192350455859  9.140625 26.2308205470314  C 9.69618055555556 26.9424060484768  10.3949652777778 27.5383589059373  11.2369791666667 28.0186791194129  C 12.0789930555556 28.4989993328886  12.8949652777778 28.8458972648432  13.6848958333333 29.0593729152769  C 14.4748263888889 29.2728485657105  15.3645833333333 29.4329553035357  16.3541666666667 29.5396931287525  C 15.6770833333333 30.1801200800534  15.2517361111111 31.0962864131643  15.078125 32.2881921280854  C 14.7135416666667 32.4660885034467  14.3229166666667 32.5995107849678  13.90625 32.6884589726484  C 13.4895833333333 32.7774071603291  12.9947916666667 32.8218812541694  12.421875 32.8218812541694  C 11.8489583333333 32.8218812541694  11.2803819444444 32.630642650656  10.7161458333333 32.2481654436291  C 10.1519097222222 31.8656882366022  9.67013888888889 31.309762063598  9.27083333333333 30.5803869246164  C 8.94097222222222 30.0111185234601  8.51996527777778 29.5485879475206  8.0078125 29.1927951967979  C 7.49565972222222 28.8370024460752  7.06597222222222 28.6235267956415  6.71875 28.552368245497  L 6.19791666666667 28.4723148765844  C 5.83333333333333 28.4723148765844  5.58159722222222 28.5123415610407  5.44270833333333 28.5923949299533  C 5.30381944444445 28.6724482988659  5.26041666666667 28.7747387146987  5.3125 28.8992661774516  C 5.36458333333333 29.0237936402046  5.44270833333333 29.1483211029575  5.546875 29.2728485657105  C 5.65104166666667 29.3973760284634  5.76388888888889 29.5041138536802  5.88541666666667 29.5930620413609  L 6.06770833333333 29.7264843228819  C 6.44965277777778 29.9043806982433  6.82725694444445 30.2423838114298  7.20052083333333 30.7404936624416  C 7.57378472222222 31.2386035134534  7.84722222222222 31.6922392706249  8.02083333333333 32.101400933956  L 8.28125 32.7151434289526  C 8.50694444444444 33.3911496553258  8.88888888888889 33.9381810095619  9.42708333333333 34.3562374916611  C 9.96527777777778 34.7742939737603  10.546875 35.0411385368023  11.171875 35.1567711807872  C 11.796875 35.2724038247721  12.4001736111111 35.3346675561485  12.9817708333333 35.3435623749166  C 13.5633680555556 35.3524571936847  14.0451388888889 35.3213253279964  14.4270833333333 35.2501667778519  L 15.0260416666667 35.1434289526351  C 15.0260416666667 35.8194351790082  15.0303819444444 36.6066266399822  15.0390625 37.505003335557  C 15.0477430555556 38.4033800311319  15.0520833333333 38.8881476539915  15.0520833333333 38.9593062041361  C 15.0520833333333 39.2795196797865  14.9392361111111 39.5463642428286  14.7135416666667 39.7598398932622  C 14.4878472222222 39.9733155436958  14.140625 40.0355792750723  13.671875 39.9466310873916  C 9.64409722222222 38.5768289971092  6.35850694444445 36.1085167889704  3.81510416666667 32.5416944629753  C 1.27170138888889 28.9748721369802  0 24.9588614631977  0 20.4936624416278  C 0 16.7756281965755  0.894097222222222 13.3466755614854  2.68229166666667 10.2068045363576  C 4.47048611111111 7.06693351122971  6.89670138888889 4.58083166555481  9.9609375 2.74849899933289  Z M 7.23958333333333 29.4863242161441  C 7.39583333333333 29.5930620413609  7.50868055555556 29.5752724038248  7.578125 29.4329553035357  C 7.63020833333333 29.3084278407827  7.56944444444445 29.2016900155659  7.39583333333333 29.1127418278853  C 7.22222222222222 29.0593729152769  7.109375 29.077162552813  7.05729166666667 29.1661107404937  C 7.00520833333333 29.2906382032466  7.06597222222222 29.3973760284634  7.23958333333333 29.4863242161441  Z M 7.96875 30.260173448966  C 8.14236111111111 30.4380698243273  8.28125 30.4647542806315  8.38541666666667 30.3402268178786  C 8.50694444444444 30.2512786301979  8.48958333333333 30.1089615299088  8.33333333333333 29.9132755170113  C 8.15972222222222 29.7531687791861  8.02083333333333 29.7264843228819  7.91666666666667 29.8332221480987  C 7.79513888888889 29.9221703357794  7.8125 30.0644874360685  7.96875 30.260173448966  Z M 8.72395833333333 31.3542361574383  C 8.88020833333333 31.585501445408  9.02777777777778 31.6477651767845  9.16666666666667 31.5410273515677  C 9.32291666666667 31.4164998888148  9.32291666666667 31.2474983322215  9.16666666666667 31.0340226817879  C 9.02777777777778 30.8027573938181  8.88020833333333 30.7493884812097  8.72395833333333 30.8739159439626  C 8.56770833333333 30.9628641316433  8.56770833333333 31.1229708694685  8.72395833333333 31.3542361574383  Z M 9.73958333333333 32.5817211474316  C 9.94791666666667 32.7951967978652  10.1215277777778 32.8218812541694  10.2604166666667 32.6617745163442  C 10.3993055555556 32.5194574160551  10.3645833333333 32.3504558594619  10.15625 32.1547698465644  C 9.94791666666667 31.9412941961308  9.77430555555556 31.9146097398266  9.63541666666667 32.0747164776518  C 9.47916666666667 32.2170335779408  9.51388888888889 32.3860351345341  9.73958333333333 32.5817211474316  Z M 11.25 33.4889926617745  C 11.5104166666667 33.5957304869913  11.6753472222222 33.5423615743829  11.7447916666667 33.3288859239493  C 11.796875 33.1331999110518  11.6840277777778 32.9908828107627  11.40625 32.9019346230821  C 11.1458333333333 32.8307760729375  10.9809027777778 32.893039804314  10.9114583333333 33.0887258172115  C 10.8420138888889 33.284411830109  10.9548611111111 33.41783411163  11.25 33.4889926617745  Z M 12.96875 33.7558372248165  C 13.2465277777778 33.7558372248165  13.3854166666667 33.6579942183678  13.3854166666667 33.4623082054703  C 13.3854166666667 33.2310429175006  13.2378472222222 33.1331999110518  12.9427083333333 33.1687791861241  C 12.6649305555556 33.1687791861241  12.5260416666667 33.2666221925728  12.5260416666667 33.4623082054703  C 12.5260416666667 33.6935734934401  12.6736111111111 33.7914164998888  12.96875 33.7558372248165  Z M 14.53125 33.5690460306871  C 14.8090277777778 33.4978874805426  14.9305555555556 33.3733600177896  14.8958333333333 33.1954636424283  C 14.8611111111111 32.9997776295308  14.7048611111111 32.9197242606182  14.4270833333333 32.9553035356905  C 14.1493055555556 33.0086724482989  14.0277777777778 33.1420947298199  14.0625 33.3555703802535  C 14.0972222222222 33.5690460306871  14.2534722222222 33.6402045808317  14.53125 33.5690460306871  Z " fill-rule="nonzero" fill="#009999" stroke="none" transform="matrix(1 0 0 1 1030 3309 )" />
  </g>
</svg>