<?xml version="1.0" encoding="utf-8"?>
<svg version="1.1" xmlns:xlink="http://www.w3.org/1999/xlink" width="19px" height="27px" xmlns="http://www.w3.org/2000/svg">
  <g transform="matrix(1 0 0 1 -804 -3176 )">
    <path d="M 19 13.5  C 19 13.7903225806449  18.8838481338482 14.0415632754339  18.6515444015445 14.2537220843669  L 5.04343629343612 26.6817617866  C 4.81113256113258 26.8939205955339  4.53603603603608 27  4.21814671814673 27  C 3.90025740025737 27  3.62516087516087 26.8939205955339  3.39285714285711 26.6817617866  L 0.34845559845553 23.9013647642678  C 0.116151866151768 23.6892059553347  0 23.4379652605458  0 23.1476426799009  C 0 22.857320099256  0.116151866151768 22.6060794044661  0.34845559845553 22.3939205955339  L 10.0868725868725 13.5  L 0.34845559845553 4.60607940446607  C 0.116151866151768 4.39392059553393  0 4.14267990074404  0 3.85235732009915  C 0 3.56203473945425  0.116151866151768 3.31079404466527  0.34845559845553 3.09863523573222  L 3.39285714285711 0.318238213400036  C 3.62516087516087 0.106079404466072  3.90025740025737 0  4.21814671814673 0  C 4.53603603603608 0  4.81113256113258 0.106079404466072  5.04343629343612 0.318238213400036  L 18.6515444015445 12.7462779156331  C 18.8838481338482 12.9584367245661  19 13.2096774193551  19 13.5  Z " fill-rule="nonzero" fill="#ffffff" stroke="none" transform="matrix(1 0 0 1 804 3176 )" />
  </g>
</svg>