<?xml version="1.0" encoding="utf-8"?>
<svg version="1.1" xmlns:xlink="http://www.w3.org/1999/xlink" width="45px" height="35px" xmlns="http://www.w3.org/2000/svg">
  <g transform="matrix(1 0 0 1 -1198 -3314 )">
    <path d="M 12.19482421875 9.74670263788969  C 12.56103515625 9.40397681854516  12.744140625 8.94584332533972  12.744140625 8.37230215827338  C 12.744140625 7.79876099120703  12.56103515625 7.33713029576339  12.19482421875 6.98741007194245  C 11.82861328125 6.6376898481215  11.34521484375 6.46282973621103  10.74462890625 6.46282973621103  C 10.11474609375 6.46282973621103  9.55810546875 6.64118705035971  9.07470703125 6.99790167865707  C 8.59130859375 7.35461630695444  8.349609375 7.81274980015987  8.349609375 8.37230215827338  C 8.349609375 8.91786570743405  8.59130859375 9.36900479616307  9.07470703125 9.72571942446043  C 9.55810546875 10.0824340527578  10.11474609375 10.2607913669065  10.74462890625 10.2607913669065  C 11.34521484375 10.2607913669065  11.82861328125 10.0894284572342  12.19482421875 9.74670263788969  Z M 28.509521484375 20.0809352517986  C 28.883056640625 19.7731814548361  29.06982421875 19.4164668265388  29.06982421875 19.0107913669065  C 29.06982421875 18.619104716227  28.883056640625 18.2693844924061  28.509521484375 17.9616306954436  C 28.135986328125 17.6538768984812  27.65625 17.5  27.0703125 17.5  C 26.6748046875 17.5  26.312255859375 17.6573741007194  25.982666015625 17.9721223021583  C 25.653076171875 18.2868705035971  25.48828125 18.6330935251799  25.48828125 19.0107913669065  C 25.48828125 19.4024780175859  25.653076171875 19.7556954436451  25.982666015625 20.0704436450839  C 26.312255859375 20.3851918465228  26.6748046875 20.5425659472422  27.0703125 20.5425659472422  C 27.65625 20.5425659472422  28.135986328125 20.388689048761  28.509521484375 20.0809352517986  Z M 23.345947265625 9.74670263788969  C 23.704833984375 9.40397681854516  23.88427734375 8.94584332533972  23.88427734375 8.37230215827338  C 23.88427734375 7.79876099120703  23.704833984375 7.33713029576339  23.345947265625 6.98741007194245  C 22.987060546875 6.6376898481215  22.50732421875 6.46282973621103  21.90673828125 6.46282973621103  C 21.27685546875 6.46282973621103  20.72021484375 6.64118705035971  20.23681640625 6.99790167865707  C 19.75341796875 7.35461630695444  19.51171875 7.81274980015987  19.51171875 8.37230215827338  C 19.51171875 8.91786570743405  19.75341796875 9.36900479616307  20.23681640625 9.72571942446043  C 20.72021484375 10.0824340527578  21.27685546875 10.2607913669065  21.90673828125 10.2607913669065  C 22.50732421875 10.2607913669065  22.987060546875 10.0894284572342  23.345947265625 9.74670263788969  Z M 37.265625 20.0809352517986  C 37.646484375 19.7731814548361  37.8369140625 19.4164668265388  37.8369140625 19.0107913669065  C 37.8369140625 18.619104716227  37.646484375 18.2693844924061  37.265625 17.9616306954436  C 36.884765625 17.6538768984812  36.40869140625 17.5  35.83740234375 17.5  C 35.44189453125 17.5  35.079345703125 17.6573741007194  34.749755859375 17.9721223021583  C 34.420166015625 18.2868705035971  34.25537109375 18.6330935251799  34.25537109375 19.0107913669065  C 34.25537109375 19.4024780175859  34.420166015625 19.7556954436451  34.749755859375 20.0704436450839  C 35.079345703125 20.3851918465228  35.44189453125 20.5425659472422  35.83740234375 20.5425659472422  C 36.40869140625 20.5425659472422  36.884765625 20.388689048761  37.265625 20.0809352517986  Z M 28.992919921875 5.21432853717026  C 30.538330078125 6.84402478017586  31.5380859375 8.66606714628297  31.9921875 10.6804556354916  C 31.5380859375 10.6245003996803  31.025390625 10.5965227817746  30.4541015625 10.5965227817746  C 27.978515625 10.5965227817746  25.70068359375 11.1350919264588  23.62060546875 12.2122302158273  C 21.54052734375 13.2893685051958  19.903564453125 14.7477018385292  18.709716796875 16.5872302158273  C 17.515869140625 18.4267585931255  16.9189453125 20.4376498800959  16.9189453125 22.6199040767386  C 16.9189453125 23.71103117506  17.08740234375 24.7741806554756  17.42431640625 25.8093525179856  C 16.91162109375 25.8513189448441  16.41357421875 25.8723021582734  15.93017578125 25.8723021582734  C 15.54931640625 25.8723021582734  15.18310546875 25.8618105515588  14.83154296875 25.8408273381295  C 14.47998046875 25.8198441247002  14.0771484375 25.7743804956035  13.623046875 25.7044364508393  C 13.1689453125 25.6344924060751  12.843017578125 25.5855315747402  12.645263671875 25.5575539568345  C 12.447509765625 25.5295763389289  12.04833984375 25.4561350919265  11.44775390625 25.3372302158273  C 10.84716796875 25.2183253397282  10.48095703125 25.1448840927258  10.34912109375 25.1169064748201  L 4.7900390625 27.7817745803357  L 6.3720703125 23.2074340527578  C 2.1240234375 20.3677058353317  0 16.9404476418865  0 12.9256594724221  C 0 10.5615507593925  0.714111328125 8.38629096722621  2.142333984375 6.39988009592326  C 3.570556640625 4.4134692246203  5.504150390625 2.85021982414068  7.943115234375 1.71013189448441  C 10.382080078125 0.570043964828135  13.04443359375 0  15.93017578125 0  C 18.50830078125 0  20.943603515625 0.461630695443646  23.236083984375 1.38489208633093  C 25.528564453125 2.30815347721823  27.447509765625 3.58463229416467  28.992919921875 5.21432853717026  Z M 43.121337890625 16.9229616306954  C 44.373779296875 18.6226019184652  45 20.4656274980016  45 22.4520383693046  C 45 24.0887290167866  44.498291015625 25.6519784172662  43.494873046875 27.1417865707434  C 42.491455078125 28.6315947242206  41.1328125 29.9850119904077  39.4189453125 31.2020383693046  L 40.62744140625 35  L 36.2548828125 32.712829736211  C 34.0576171875 33.230415667466  32.4609375 33.4892086330935  31.46484375 33.4892086330935  C 28.9892578125 33.4892086330935  26.71142578125 32.996103117506  24.63134765625 32.0098920863309  C 22.55126953125 31.0236810551559  20.914306640625 29.6842525979217  19.720458984375 27.9916067146283  C 18.526611328125 26.2989608313349  17.9296875 24.4524380495603  17.9296875 22.4520383693046  C 17.9296875 20.4516386890488  18.526611328125 18.6051159072742  19.720458984375 16.9124700239808  C 20.914306640625 15.2198241406874  22.55126953125 13.8803956834532  24.63134765625 12.8941846522782  C 26.71142578125 11.9079736211031  28.9892578125 11.4148681055156  31.46484375 11.4148681055156  C 33.8232421875 11.4148681055156  36.04248046875 11.9079736211031  38.12255859375 12.8941846522782  C 40.20263671875 13.8803956834532  41.868896484375 15.2233213429257  43.121337890625 16.9229616306954  Z " fill-rule="nonzero" fill="#009999" stroke="none" transform="matrix(1 0 0 1 1198 3314 )" />
  </g>
</svg>