<?xml version="1.0" encoding="utf-8"?>
<svg version="1.1" xmlns:xlink="http://www.w3.org/1999/xlink" width="48px" height="40px" xmlns="http://www.w3.org/2000/svg">
  <g transform="matrix(1 0 0 1 -1277 -3309 )">
    <path d="M 16.2669641197248 31.9972451790636  C 16.9840384564311 31.7493112947661  17.5373365557415 31.3131313131315  17.926858417656 30.6887052341597  C 18.2986747403925 30.064279155188  18.3960552058712 29.4306703397611  18.2189998140918 28.7878787878784  C 18.0419444223125 28.1450872359965  17.6435697908091 27.6859504132233  17.0238759195814 27.410468319559  C 16.4218875875317 27.1533516988064  15.7756354075372 27.1441689623505  15.0851193795979 27.3829201101929  C 14.3946033516586 27.6216712580346  13.8634371763207 28.0440771349866  13.491620853584 28.6501377410466  C 13.1020989916696 29.2745638200184  12.987012987013 29.9035812672177  13.1463628396143 30.5371900826445  C 13.3057126922157 31.1707988980714  13.6863817845413 31.6345270890728  14.2883701165909 31.9283746556473  C 14.8903584486406 32.2222222222219  15.5498897830186 32.2451790633611  16.2669641197248 31.9972451790636  Z M 19.8390566488725 27.8650137741046  C 20.1046397365416 27.7640036730947  20.2994006674988 27.5941230486686  20.4233394417443 27.3553719008261  C 20.5649837551679 27.1166207529845  20.5959684487292 26.8732782369145  20.5162935224285 26.625344352617  C 20.4366185961278 26.3774104683194  20.281695128321 26.2075298438933  20.0515231190078 26.1157024793385  C 19.8036455705168 26.0238751147845  19.5513416372312 26.028466483012  19.2946113191512 26.1294765840219  C 19.0378810010711 26.2304866850318  18.8475464549085 26.4003673094579  18.723607680663 26.6391184573004  C 18.422613514638 27.2084481175392  18.5376995192945 27.6216712580346  19.0688656946326 27.878787878788  C 19.3167432431236 27.9706152433428  19.5734735612036 27.9660238751145  19.8390566488725 27.8650137741046  Z M 24.9780893952673 25.0550964187329  C 25.8191025062191 26.7171717171717  25.8412344301916 28.4664830119378  25.0444851671846 30.3030303030304  C 24.2477359041777 32.1763085399449  22.8489983091211 33.5537190082643  20.8482723820148 34.4352617079887  C 18.8475464549085 35.3168044077138  16.86452606698 35.4269972451788  14.8992112182296 34.7658402203859  C 13.004718526191 34.1414141414141  11.6989350118184 32.9797979797979  10.9818606751122 31.2809917355371  C 10.2647863384059 29.5821854912763  10.3223293407342 27.860422405877  11.1544896820971 26.1157024793385  C 11.9866500234599 24.4077134986226  13.3278446161882 23.1313131313131  15.1780734602821 22.2865013774106  C 17.0283023043758 21.4416896235081  18.8918103028532 21.2672176308537  20.768597455714 21.7630853994488  C 22.7339123044644 22.2956841138657  24.1370762843156 23.393021120294  24.9780893952673 25.0550964187329  Z M 29.8117015908427 33.1818181818184  C 32.4055630804096 31.0055096418735  33.5785550509477 28.5766758494028  33.3306775024567 25.8953168044078  C 33.1713276498553 24.132231404959  32.3834311564374 22.57116620753  30.9669880222027 21.2121212121216  C 29.5505448879682 19.8530762167124  27.7047424286687 18.8521579430671  25.4295806443046 18.2093663911844  C 23.1544188599404 17.5665748393018  20.7243336077693 17.3737373737371  18.1393248877911 17.6308539944905  C 14.1909896511123 18.0532598714417  10.9198912879895 19.3526170798898  8.32602979842237 21.5289256198346  C 5.73216830885542 23.7052341597795  4.55917633831736 26.1340679522495  4.80705388680854 28.8154269972452  C 4.96640373940993 30.578512396694  5.75430023282786 32.139577594123  7.17074336706234 33.4986225895314  C 8.58718650129699 34.8576675849406  10.4329889605963 35.8585858585859  12.7081507449605 36.5013774104686  C 14.9833125293248 37.1441689623505  17.413397781496 37.3370064279152  19.9984065014739 37.0798898071625  C 23.9467417381527 36.6574839302113  27.2178401012757 35.3581267217633  29.8117015908427 33.1818181818184  Z M 40.6076541045867 22.7961432506891  C 41.2096424366363 23.7603305785124  41.5106366026611 24.8301193755739  41.5106366026611 26.0055096418735  C 41.5106366026611 27.2543617998163  41.1830841278695 28.5353535353534  40.5279791782859 29.8484848484848  C 39.8728742287025 31.1616161616163  38.9079223435051 32.4196510560148  37.633123522694 33.6225895316806  C 36.3583247018829 34.8255280073463  34.8666330261422 35.9044995408629  33.1580484954719 36.8595041322311  C 31.4494639648013 37.8145087235993  29.4487380376952 38.5766758494028  27.155870714153 39.1460055096417  C 24.8630033906108 39.7153351698806  22.4683292167955 40  19.971848192707 40  C 17.4753671686187 40  15.0408555316532 39.6923783287421  12.6683132818102 39.0771349862262  C 10.2957710319674 38.4618916437095  8.16667994582098 37.6078971533519  6.28104002337135 36.5151515151512  C 4.39540010092155 35.4224058769512  2.87715011641385 34.035812672176  1.72629006984841 32.3553719008261  C 0.575430023282804 30.6749311294763  0 28.8429752066113  0 26.8595041322311  C 0 24.7474747474749  0.615267486433108 22.4977043158862  1.84580245929932 20.1101928374657  C 3.07633743216571 17.7226813590452  4.8247594259864 15.3535353535357  7.09106844076173 13.0027548209364  C 10.0833045618322 9.89898989899011  13.106525376464 7.73186409550035  16.1607308846573 6.50137741046856  C 19.2149363928506 5.27089072543604  21.3971440965305 5.33516988062474  22.7073539956975 6.69421487603322  C 23.8582140422631 7.86960514233215  24.0352694340424 9.78879706152438  23.2385201710354 12.4517906336085  C 23.1676980143238 12.7089072543618  23.1588452447348 12.8925619834714  23.2119618622686 13.0027548209364  C 23.2650784798025 13.1129476584021  23.3536061756921 13.1772268135901  23.4775449499376 13.1955922865011  C 23.6014837241831 13.213957759412  23.7298488832232 13.2093663911844  23.8626404270575 13.1818181818184  C 23.9954319708921 13.1542699724516  24.1149443603432 13.122130394858  24.2211775954108 13.085399449036  L 24.3805274480122 13.0303030303032  C 26.8415973937446 11.9467401285583  29.0193787126302 11.4049586776862  30.913871404669 11.4049586776862  C 32.8083640967076 11.4049586776862  34.1628378438195 11.9651056014693  34.9772926460043 13.085399449036  C 35.7740419090113 14.242424242424  35.7740419090113 15.8769513314968  34.9772926460043 17.9889807162537  C 34.9418815676484 18.2277318640954  34.9020441044981 18.411386593205  34.8577802565532 18.5399449035809  C 34.8135164086085 18.6685032139576  34.8533538717588 18.7832874196509  34.9772926460043 18.8842975206615  C 35.1012314202498 18.9853076216714  35.2074646553175 19.0541781450869  35.2959923512071 19.0909090909088  C 35.3845200470967 19.1276400367307  35.5350171301091 19.1827364554636  35.7474836002444 19.2561983471074  C 36.7566993333865 19.5867768595039  37.6685346010499 20.018365472911  38.4829894032349 20.5509641873279  C 39.2974442054197 21.0835629017449  40.005665772537 21.831955922865  40.6076541045867 22.7961432506891  Z M 36.8629325684541 7.01101928374628  C 37.9075593799521 7.35078053259858  38.8016891084377 7.95224977043181  39.5453217539107 8.81542699724523  C 40.2889543993839 9.67860422405865  40.7714303419825 10.6749311294763  40.9927495817066 11.804407713499  C 41.2140688214308 12.9338842975209  41.1565258191024 14.0128558310374  40.8201205747218 15.0413223140495  C 40.6784762612983 15.4637281910007  40.4173195584238 15.7759412304869  40.0366504660983 15.9779614325067  C 39.6559813737728 16.1799816345272  39.2620331270638 16.2167125803491  38.8548057259714 16.0881542699724  C 38.447578324879 15.9412304866848  38.1465841588541 15.6703397612488  37.9518232278968 15.2754820936636  C 37.7570622969395 14.8806244260792  37.7216512185838 14.4719926538106  37.8455899928293 14.0495867768594  C 38.199700776388 12.8925619834714  37.9872343062527 11.8732782369145  37.2081905824238 10.9917355371901  C 36.4291468585947 10.1101928374657  35.4819005125753 9.78879706152438  34.3664515443656 10.0275482093661  C 33.9415186040954 10.1193755739208  33.5431439725918 10.045913682277  33.1713276498553 9.80716253443534  C 32.7995113271186 9.56841138659292  32.5781920873945 9.22865013774135  32.5073699306829 8.78787878787844  C 32.4188422347932 8.34710743801624  32.4896643915048 7.93847566574841  32.719836400818 7.5619834710742  C 32.9500084101311 7.18549127640072  33.2775608849228 6.95133149678586  33.7024938251932 6.85950413223109  C 34.7648261758692 6.6207529843894  35.818305756956 6.67125803489471  36.8629325684541 7.01101928374628  Z M 38.8282474172045 0.619834710743453  C 40.9706176577342 1.3085399449039  42.8119937322391 2.54361799816325  44.3523756407192 4.32506887052368  C 45.8927575491992 6.08815426997244  46.8886941279578 8.13131313131307  47.3401853769951 10.4545454545456  C 47.7916766260324 12.7777777777781  47.6721642365814 14.9954086317724  46.9816482086421 17.1074380165286  C 46.8222983560407 17.6033057851237  46.5213041900159 17.9706152433428  46.0786657105675 18.2093663911844  C 45.6360272311192 18.4481175390269  45.175683212493 18.4848484848488  44.6976336546889 18.3195592286502  C 44.2195840968847 18.1542699724516  43.865473313326 17.8420569329661  43.6353013040129 17.3829201101929  C 43.4051292946999 16.9237832874198  43.360865446755 16.4462809917357  43.5025097601785 15.9504132231406  C 43.9982648571606 14.4444444444445  44.0867925530502 12.8650137741046  43.7680928478474 11.2121212121216  C 43.4493931426446 9.55922865013781  42.7411715755275 8.10835629017456  41.6434281464956 6.85950413223109  C 40.5456847174639 5.59228650137738  39.2354748182969 4.71533516988056  37.7127984489948 4.22865013774135  C 36.1901220796927 3.74196510560141  34.6585929408015 3.66391184573004  33.1182110323214 3.9944903581265  C 32.6224559353394 4.10468319559222  32.1621119167132 4.01744719926573  31.7371789764428 3.7327823691463  C 31.3122460361724 3.44811753902686  31.0466629485035 3.04866850321414  30.9404297134358 2.53443526170813  C 30.8341964783682 2.02020202020212  30.9182977894634 1.54729109274558  31.1927336467215 1.11570247933851  C 31.4671695039793 0.684113865932159  31.8522649810993 0.41322314049612  32.3480200780815 0.303030303030391  C 34.525801396967 -0.174471992653707  36.6858771766747 -0.0688705234162626  38.8282474172045 0.619834710743453  Z " fill-rule="nonzero" fill="#009999" stroke="none" transform="matrix(1 0 0 1 1277 3309 )" />
  </g>
</svg>