<?xml version="1.0" encoding="utf-8"?>
<svg version="1.1" xmlns:xlink="http://www.w3.org/1999/xlink" width="40px" height="40px" xmlns="http://www.w3.org/2000/svg">
  <g transform="matrix(1 0 0 1 -1119 -3312 )">
    <path d="M 0 28.3928571428571  C 0 24.3005952380952  1.91343963553531 20.8333333333333  5.74031890660592 17.9910714285714  C 5.61883067577828 17.7083333333333  5.55808656036446 17.3214285714286  5.55808656036446 16.8303571428571  C 5.55808656036446 16.5327380952381  5.64160971905847 16.1681547619048  5.80865603644647 15.7366071428571  C 5.97570235383447 15.3050595238095  6.15793470007593 14.9702380952381  6.35535307517084 14.7321428571429  C 6.34016704631739 14.4047619047619  6.39711465451784 14.0104166666667  6.52619589977221 13.5491071428571  C 6.65527714502658 13.0877976190476  6.82611996962794 12.7678571428571  7.03872437357631 12.5892857142857  C 7.03872437357631 10.5208333333333  7.7410782080486 8.37425595238095  9.14578587699317 6.14955357142857  C 10.5504935459377 3.92485119047619  12.201974183751 2.36607142857143  14.1002277904328 1.47321428571428  C 16.211085801063 0.491071428571428  18.6712224753227 0  21.4806378132118 0  C 23.5003796507213 0  25.5201214882308 0.409226190476195  27.5398633257403 1.22767857142857  C 28.2839787395596 1.54017857142857  28.9673500379651 1.89732142857143  29.5899772209567 2.29910714285714  C 30.2126044039484 2.70089285714286  30.751708428246 3.11755952380952  31.2072892938497 3.54910714285714  C 31.6628701594533 3.98065476190476  32.0804859529233 4.48660714285714  32.4601366742597 5.06696428571428  C 32.8397873955961 5.64732142857143  33.1586940015186 6.19791666666667  33.4168564920273 6.71875  C 33.6750189825361 7.23958333333333  33.9217919514047 7.86830357142857  34.1571753986333 8.60491071428572  C 34.3925588458618 9.34151785714286  34.5861807137434 10.0074404761905  34.7380410022779 10.6026785714286  C 34.8899012908125 11.1979166666667  35.0569476082005 11.9270833333333  35.2391799544419 12.7901785714286  L 35.2619589977221 12.9017857142857  C 36.0971905846621 14.1369047619048  36.5148063781321 15.2529761904762  36.5148063781321 16.25  C 36.5148063781321 16.4583333333333  36.4464692482916 16.7559523809524  36.3097949886105 17.1428571428571  C 36.1731207289294 17.5297619047619  36.1047835990888 17.8125  36.1047835990888 17.9910714285714  C 36.1047835990888 18.0059523809524  36.1161731207289 18.031994047619  36.1389521640091 18.0691964285714  C 36.1617312072893 18.1063988095238  36.1883067577828 18.1436011904762  36.2186788154898 18.1808035714286  C 36.2490508731967 18.218005952381  36.2642369020501 18.2440476190476  36.2642369020501 18.2589285714286  C 37.4335611237661 19.9553571428571  38.3485193621868 21.5513392857143  39.0091116173121 23.046875  C 39.6697038724374 24.5424107142857  40 26.09375  40 27.7008928571429  C 40 28.3407738095238  39.8519362186788 29.0848214285714  39.5558086560364 29.9330357142857  C 39.2596810933941 30.78125  38.8382687927107 31.2053571428571  38.2915717539863 31.2053571428571  C 38.1548974943052 31.2053571428571  38.0068337129841 31.1495535714286  37.8473804100228 31.0379464285714  C 37.6879271070615 30.9263392857143  37.5436598329537 30.796130952381  37.4145785876993 30.6473214285714  C 37.285497342445 30.4985119047619  37.1412300683371 30.3050595238095  36.9817767653759 30.0669642857143  C 36.8223234624146 29.828869047619  36.7008352315869 29.6316964285714  36.6173120728929 29.4754464285714  C 36.5337889141989 29.3191964285714  36.4312832194381 29.125744047619  36.3097949886105 28.8950892857143  C 36.1883067577828 28.6644345238095  36.1199696279423 28.5342261904762  36.1047835990888 28.5044642857143  C 36.0895975702354 28.4895833333333  36.0668185269552 28.4821428571429  36.0364464692483 28.4821428571429  L 35.9225512528474 28.5714285714286  C 35.0265755504935 30.8630952380952  34.0242976461655 32.5223214285714  32.9157175398633 33.5491071428571  C 33.2194381169324 33.8467261904762  33.6864085041762 34.1331845238095  34.3166287015945 34.4084821428571  C 34.9468488990129 34.6837797619048  35.4707668944571 34.9925595238095  35.8883826879271 35.3348214285714  C 36.3059984813971 35.6770833333333  36.5755504935459 36.1607142857143  36.6970387243736 36.7857142857143  C 36.6666666666667 36.8452380952381  36.6362946089598 36.9642857142857  36.6059225512528 37.1428571428571  C 36.5755504935459 37.3214285714286  36.5223993925588 37.4553571428571  36.4464692482916 37.5446428571429  C 35.4745634016705 38.9880952380952  33.1814730447988 39.7098214285714  29.5671981776765 39.7098214285714  C 28.7623386484434 39.7098214285714  27.9233105542901 39.6428571428571  27.0501138952164 39.5089285714286  C 26.1769172361427 39.375  25.4328018223235 39.2261904761905  24.8177676537585 39.0625  C 24.2027334851936 38.8988095238095  23.4092634776006 38.6755952380952  22.4373576309795 38.3928571428571  C 22.2095671981777 38.3184523809524  22.0349278663629 38.266369047619  21.9134396355353 38.2366071428571  C 21.7008352315869 38.1770833333333  21.3515565679575 38.1436011904762  20.8656036446469 38.1361607142857  C 20.3796507213364 38.1287202380952  20.0759301442673 38.1175595238095  19.9544419134396 38.1026785714286  C 19.331814730448 38.7723214285714  18.3637053910402 39.2559523809524  17.0501138952164 39.5535714285714  C 15.7365223993926 39.8511904761905  14.457099468489 40  13.2118451025057 40  C 12.6803340926348 40  12.1564160971906 39.9888392857143  11.6400911161731 39.9665178571429  C 11.1237661351557 39.9441964285714  10.41761579347 39.8772321428571  9.52164009111617 39.765625  C 8.62566438876234 39.6540178571429  7.85876993166287 39.5014880952381  7.22095671981777 39.3080357142857  C 6.58314350797267 39.1145833333333  6.01746393318147 38.8169642857143  5.52391799544419 38.4151785714286  C 5.03037205770691 38.0133928571429  4.78359908883827 37.5372023809524  4.78359908883827 36.9866071428571  C 4.78359908883827 36.391369047619  4.85952923310554 35.9486607142857  5.01138952164009 35.6584821428571  C 5.16324981017464 35.3683035714286  5.47456340167046 35.0074404761905  5.94533029612756 34.5758928571429  C 6.11237661351557 34.546130952381  6.41989369779803 34.4494047619048  6.86788154897494 34.2857142857143  C 7.31586940015186 34.1220238095238  7.69172361427487 34.0327380952381  7.99544419134396 34.0178571428571  C 8.05618830675778 34.0178571428571  8.16249050873197 34.0029761904762  8.31435079726651 33.9732142857143  C 8.34472285497343 33.9434523809524  8.35990888382688 33.9136904761905  8.35990888382688 33.8839285714286  L 8.31435079726651 33.8169642857143  C 7.58542141230068 33.6532738095238  6.76537585421412 32.8683035714286  5.85421412300683 31.4620535714286  C 4.94305239179954 30.0558035714286  4.38876233864844 28.891369047619  4.19134396355353 27.96875  L 4.07744874715262 27.9017857142857  C 4.0167046317388 27.9017857142857  3.92558845861807 28.0505952380952  3.80410022779043 28.3482142857143  C 3.53075170842825 28.9583333333333  3.1169324221716 29.5126488095238  2.5626423690205 30.0111607142857  C 2.0083523158694 30.5096726190476  1.41989369779803 30.7886904761905  0.797266514806378 30.8482142857143  L 0.774487471526196 30.8482142857143  C 0.713743356112376 30.8482142857143  0.668185269552012 30.8147321428571  0.637813211845103 30.7477678571429  C 0.607441154138193 30.6808035714286  0.569476082004556 30.639880952381  0.523917995444191 30.625  C 0.17463933181473 29.8214285714286  0 29.077380952381  0 28.3928571428571  Z " fill-rule="nonzero" fill="#009999" stroke="none" transform="matrix(1 0 0 1 1119 3312 )" />
  </g>
</svg>