<?xml version="1.0" encoding="utf-8"?>
<svg version="1.1" xmlns:xlink="http://www.w3.org/1999/xlink" width="50px" height="49px" xmlns="http://www.w3.org/2000/svg">
  <g transform="matrix(1 0 0 1 -3210 -3565 )">
    <path d="M 12.451171875 3.36691127418279  C 16.2814670138889 1.12230375806093  20.4644097222222 0  25 0  C 29.5355902777778 0  33.7185329861111 1.12230375806093  37.548828125 3.36691127418279  C 41.3791232638889 5.61151879030465  44.4118923611111 8.65699355125639  46.6471354166667 12.503335557038  C 48.8823784722222 16.3496775628197  50 20.550144540805  50 25.104736490994  C 50 30.5746052924172  48.4103732638889 35.4942183678008  45.2311197916667 39.8635757171448  C 42.0518663194445 44.2329330664888  37.9448784722222 47.2566155214588  32.91015625 48.9346230820547  C 32.32421875 49.0435846119635  31.8901909722222 48.9673115410274  31.6080729166667 48.7058038692462  C 31.3259548611111 48.444296197465  31.1848958333333 48.1174116077385  31.1848958333333 47.7251501000667  C 31.1848958333333 47.6597731821214  31.1903211805556 46.8262174783189  31.201171875 45.2244829886591  C 31.2120225694444 43.6227484989993  31.2174479166667 42.1572159217256  31.2174479166667 40.8278852568379  C 31.2174479166667 38.7140315766066  30.6532118055556 37.1667778519013  29.5247395833333 36.1861240827218  C 30.76171875 36.0553702468312  31.8739149305556 35.8592394929953  32.861328125 35.5977318212141  C 33.8487413194445 35.336224149433  34.8687065972222 34.9112741827885  35.9212239583333 34.3228819212809  C 36.9737413194445 33.7344896597732  37.8526475694445 33.0098954858795  38.5579427083333 32.1490993995997  C 39.2632378472222 31.28830331332  39.8383246527778 30.1442072492773  40.283203125 28.7168112074716  C 40.7280815972222 27.289415165666  40.9505208333333 25.6495441405381  40.9505208333333 23.7971981320881  C 40.9505208333333 21.2039137202579  40.0933159722222 18.9593062041361  38.37890625 17.0633755837225  C 39.1818576388889 15.0802757393818  39.0950520833333 12.8574605292417  38.1184895833333 10.3949299533022  C 37.5108506944445 10.1987991994663  36.6319444444445 10.318656882366  35.4817708333333 10.7545030020013  C 34.3315972222222 11.1903491216366  33.3333333333333 11.6697798532355  32.4869791666667 12.1927951967979  L 31.25 12.9773182121414  C 29.2317708333333 12.4107182566155  27.1484375 12.1274182788526  25 12.1274182788526  C 22.8515625 12.1274182788526  20.7682291666667 12.4107182566155  18.75 12.9773182121414  C 18.4027777777778 12.737602846342  17.9416232638889 12.4434067155882  17.3665364583333 12.0947298198799  C 16.7914496527778 11.7460529241717  15.8854166666667 11.3265510340227  14.6484375 10.836224149433  C 13.4114583333333 10.3458972648432  12.4891493055556 10.1987991994663  11.8815104166667 10.3949299533022  C 10.9049479166667 12.8574605292417  10.8181423611111 15.0802757393818  11.62109375 17.0633755837225  C 9.90668402777778 18.9593062041361  9.04947916666667 21.2039137202579  9.04947916666667 23.7971981320881  C 9.04947916666667 25.6495441405381  9.27191840277778 27.2839670891706  9.716796875 28.7004669779853  C 10.1616753472222 30.1169668668001  10.7313368055556 31.2610629308428  11.42578125 32.1327551701134  C 12.1202256944444 33.004447409384  12.9937065972222 33.7344896597732  14.0462239583333 34.3228819212809  C 15.0987413194444 34.9112741827885  16.1187065972222 35.336224149433  17.1061197916667 35.5977318212141  C 18.0935329861111 35.8592394929953  19.2057291666667 36.0553702468312  20.4427083333333 36.1861240827218  C 19.5963541666667 36.9706470980654  19.0646701388889 38.0929508561263  18.84765625 39.5530353569046  C 18.3919270833333 39.7709584167223  17.9036458333333 39.9344007115855  17.3828125 40.0433622414943  C 16.8619791666667 40.1523237714032  16.2434895833333 40.2068045363576  15.52734375 40.2068045363576  C 14.8111979166667 40.2068045363576  14.1004774305556 39.9725372470536  13.3951822916667 39.5040026684456  C 12.6898871527778 39.0354680898377  12.0876736111111 38.3544585279075  11.5885416666667 37.4609739826551  C 11.1762152777778 36.7636201912386  10.6499565972222 36.1970202357127  10.009765625 35.7611741160774  C 9.36957465277778 35.3253279964421  8.83246527777778 35.0638203246609  8.3984375 34.9766511007338  L 7.74739583333333 34.8785857238159  C 7.29166666666667 34.8785857238159  6.97699652777778 34.9276184122748  6.80338541666667 35.0256837891928  C 6.62977430555556 35.1237491661107  6.57552083333333 35.2490549255059  6.640625 35.4016010673783  C 6.70572916666667 35.5541472092506  6.80338541666667 35.706693351123  6.93359375 35.8592394929953  C 7.06380208333333 36.0117856348677  7.20486111111111 36.1425394707583  7.35677083333333 36.2515010006671  L 7.58463541666667 36.4149432955304  C 8.06206597222222 36.632866355348  8.53407118055556 37.0469201690016  9.00065104166667 37.657104736491  C 9.46723090277778 38.2672893039804  9.80902777777778 38.8229931065154  10.0260416666667 39.3242161440961  L 10.3515625 40.076050700467  C 10.6336805555556 40.9041583277741  11.1111111111111 41.5742717367134  11.7838541666667 42.0863909272849  C 12.4565972222222 42.5985101178564  13.18359375 42.9253947075828  13.96484375 43.0670446964643  C 14.74609375 43.2086946853458  15.5002170138889 43.284967756282  16.2272135416667 43.2958639092729  C 16.9542100694444 43.3067600622637  17.5564236111111 43.2686235267956  18.0338541666667 43.1814543028686  L 18.7825520833333 43.050700466978  C 18.7825520833333 43.8788080942851  18.7879774305556 44.8431176339782  18.798828125 45.9436290860574  C 18.8096788194444 47.0441405381365  18.8151041666667 47.6379808761396  18.8151041666667 47.7251501000667  C 18.8151041666667 48.1174116077385  18.6740451388889 48.444296197465  18.3919270833333 48.7058038692462  C 18.1098090277778 48.9673115410274  17.67578125 49.0435846119635  17.08984375 48.9346230820547  C 12.0551215277778 47.2566155214588  7.94813368055556 44.2329330664888  4.76888020833333 39.8635757171448  C 1.58962673611111 35.4942183678008  0 30.5746052924172  0 25.104736490994  C 0 20.550144540805  1.11762152777778 16.3496775628197  3.35286458333333 12.503335557038  C 5.58810763888889 8.65699355125639  8.62087673611111 5.61151879030465  12.451171875 3.36691127418279  Z M 9.04947916666667 36.1207471647765  C 9.24479166666667 36.2515010006671  9.38585069444445 36.2297086946854  9.47265625 36.0553702468312  C 9.53776041666667 35.9028241049589  9.46180555555556 35.7720702690683  9.24479166666667 35.6631087391594  C 9.02777777777778 35.5977318212141  8.88671875 35.6195241271959  8.82161458333333 35.7284856571047  C 8.75651041666667 35.8810317989771  8.83246527777778 36.0117856348677  9.04947916666667 36.1207471647765  Z M 9.9609375 37.0687124749833  C 10.1779513888889 37.286635534801  10.3515625 37.3193239937736  10.4817708333333 37.1667778519013  C 10.6336805555556 37.0578163219924  10.6119791666667 36.8834778741383  10.4166666666667 36.6437625083389  C 10.1996527777778 36.447631754503  10.0260416666667 36.4149432955304  9.89583333333333 36.5456971314209  C 9.74392361111111 36.6546586613298  9.765625 36.8289971091839  9.9609375 37.0687124749833  Z M 10.9049479166667 38.4089392928619  C 11.1002604166667 38.6922392706249  11.2847222222222 38.768512341561  11.4583333333333 38.6377585056704  C 11.6536458333333 38.4852123637981  11.6536458333333 38.2781854569713  11.4583333333333 38.0166777851901  C 11.2847222222222 37.7333778074272  11.1002604166667 37.6680008894819  10.9049479166667 37.8205470313542  C 10.7096354166667 37.9295085612631  10.7096354166667 38.125639315099  10.9049479166667 38.4089392928619  Z M 12.1744791666667 39.9126084056037  C 12.4348958333333 40.1741160773849  12.6519097222222 40.2068045363576  12.8255208333333 40.0106737825217  C 12.9991319444444 39.8363353346676  12.9557291666667 39.6293084278408  12.6953125 39.3895930620414  C 12.4348958333333 39.1280853902602  12.2178819444444 39.0953969312875  12.0442708333333 39.2915276851234  C 11.8489583333333 39.4658661329775  11.8923611111111 39.6728930398043  12.1744791666667 39.9126084056037  Z M 14.0625 41.0240160106738  C 14.3880208333333 41.1547698465644  14.5941840277778 41.0893929286191  14.6809895833333 40.8278852568379  C 14.74609375 40.5881698910385  14.6050347222222 40.4138314431843  14.2578125 40.3048699132755  C 13.9322916666667 40.2177006893485  13.7261284722222 40.2939737602846  13.6393229166667 40.5336891260841  C 13.5525173611111 40.7734044918835  13.6935763888889 40.9368467867467  14.0625 41.0240160106738  Z M 16.2109375 41.3509006004003  C 16.5581597222222 41.3509006004003  16.7317708333333 41.2310429175006  16.7317708333333 40.9913275517011  C 16.7317708333333 40.7080275739382  16.5473090277778 40.5881698910385  16.1783854166667 40.631754503002  C 15.8311631944444 40.631754503002  15.6575520833333 40.7516121859017  15.6575520833333 40.9913275517011  C 15.6575520833333 41.2746275294641  15.8420138888889 41.3944852123638  16.2109375 41.3509006004003  Z M 18.1640625 41.1220813875917  C 18.5112847222222 41.0349121636647  18.6631944444444 40.8823660217923  18.6197916666667 40.6644429619747  C 18.5763888888889 40.4247275961752  18.3810763888889 40.3266622192573  18.0338541666667 40.3702468312208  C 17.6866319444444 40.4356237491661  17.5347222222222 40.5990660440294  17.578125 40.8605737158105  C 17.6215277777778 41.1220813875917  17.8168402777778 41.2092506115188  18.1640625 41.1220813875917  Z " fill-rule="nonzero" fill="#006666" stroke="none" transform="matrix(1 0 0 1 3210 3565 )" />
  </g>
</svg>