<?xml version="1.0" encoding="utf-8"?>
<svg version="1.1" xmlns:xlink="http://www.w3.org/1999/xlink" width="20px" height="20px" xmlns="http://www.w3.org/2000/svg">
  <g transform="matrix(1 0 0 1 -2236 -94 )">
    <path d="M 15.5859375 11.4192708333334  C 15.7508680555555 11.2543402777777  15.8333333333334 11.0590277777777  15.8333333333334 10.8333333333334  L 15.8333333333334 9.16666666666663  C 15.8333333333334 8.94097222222229  15.7508680555555 8.74565972222229  15.5859375 8.58072916666663  C 15.4210069444445 8.4157986111112  15.2256944444445 8.33333333333337  15 8.33333333333337  L 11.6666666666666 8.33333333333337  L 11.6666666666666 5  C 11.6666666666666 4.77430555555554  11.5842013888889 4.57899305555554  11.4192708333334 4.4140625  C 11.2543402777778 4.24913194444446  11.0590277777778 4.16666666666663  10.8333333333334 4.16666666666663  L 9.16666666666663 4.16666666666663  C 8.94097222222217 4.16666666666663  8.74565972222217 4.24913194444446  8.58072916666663 4.4140625  C 8.41579861111114 4.57899305555554  8.33333333333337 4.77430555555554  8.33333333333337 5  L 8.33333333333337 8.33333333333337  L 5 8.33333333333337  C 4.77430555555554 8.33333333333337  4.57899305555554 8.4157986111112  4.4140625 8.58072916666663  C 4.24913194444446 8.74565972222229  4.16666666666663 8.94097222222229  4.16666666666663 9.16666666666663  L 4.16666666666663 10.8333333333334  C 4.16666666666663 11.0590277777777  4.24913194444446 11.2543402777777  4.4140625 11.4192708333334  C 4.57899305555554 11.5842013888888  4.77430555555554 11.6666666666666  5 11.6666666666666  L 8.33333333333337 11.6666666666666  L 8.33333333333337 15  C 8.33333333333337 15.2256944444445  8.41579861111114 15.4210069444445  8.58072916666663 15.5859375  C 8.74565972222217 15.7508680555555  8.94097222222217 15.8333333333334  9.16666666666663 15.8333333333334  L 10.8333333333334 15.8333333333334  C 11.0590277777778 15.8333333333334  11.2543402777778 15.7508680555555  11.4192708333334 15.5859375  C 11.5842013888889 15.4210069444445  11.6666666666666 15.2256944444445  11.6666666666666 15  L 11.6666666666666 11.6666666666666  L 15 11.6666666666666  C 15.2256944444445 11.6666666666666  15.4210069444445 11.5842013888888  15.5859375 11.4192708333334  Z M 18.6588541666666 4.98046875  C 19.5529513888889 6.51258680555554  20 8.1857638888888  20 10  C 20 11.8142361111112  19.5529513888889 13.4874131944445  18.6588541666666 15.01953125  C 17.7647569444445 16.5516493055555  16.5516493055555 17.7647569444445  15.01953125 18.6588541666666  C 13.4874131944445 19.5529513888888  11.8142361111111 20  10 20  C 8.18576388888886 20  6.51258680555554 19.5529513888888  4.98046875 18.6588541666666  C 3.44835069444446 17.7647569444445  2.23524305555554 16.5516493055555  1.34114583333337 15.01953125  C 0.447048611111143 13.4874131944445  0 11.8142361111112  0 10  C 0 8.1857638888888  0.447048611111143 6.51258680555554  1.34114583333337 4.98046875  C 2.23524305555554 3.44835069444446  3.44835069444446 2.23524305555554  4.98046875 1.34114583333337  C 6.51258680555554 0.4470486111112  8.18576388888886 0  10 0  C 11.8142361111111 0  13.4874131944445 0.4470486111112  15.01953125 1.34114583333337  C 16.5516493055555 2.23524305555554  17.7647569444445 3.44835069444446  18.6588541666666 4.98046875  Z " fill-rule="nonzero" fill="#666666" stroke="none" transform="matrix(1 0 0 1 2236 94 )" />
  </g>
</svg>