<?xml version="1.0" encoding="utf-8"?>
<svg version="1.1" xmlns:xlink="http://www.w3.org/1999/xlink" width="30px" height="30px" xmlns="http://www.w3.org/2000/svg">
  <g transform="matrix(1 0 0 1 -3512 -188 )">
    <path d="M 19.4921875 19.1796875  C 20.6901041666665 18.0598958333334  22.109375 17.5  23.75 17.5  C 25.4817708333335 17.5  26.9563802083335 18.1087239583333  28.173828125 19.326171875  C 29.3912760416665 20.5436197916667  30 22.0182291666666  30 23.75  C 30 25.4817708333333  29.3912760416665 26.9563802083333  28.173828125 28.173828125  C 26.9563802083335 29.3912760416667  25.4817708333335 30  23.75 30  C 22.018229166667 30  20.5436197916665 29.3912760416667  19.326171875 28.173828125  C 18.1087239583335 26.9563802083333  17.5 25.4817708333333  17.5 23.75  C 17.5 23.59375  17.5130208333335 23.3723958333333  17.5390625 23.0859375  L 10.5078125 19.5703125  C 9.30989583333348 20.6901041666667  7.890625 21.25  6.25 21.25  C 4.51822916666652 21.25  3.04361979166652 20.6412760416666  1.826171875 19.423828125  C 0.608723958333485 18.2063802083334  0 16.7317708333333  0 15  C 0 13.2682291666667  0.608723958333485 11.7936197916666  1.826171875 10.576171875  C 3.04361979166652 9.35872395833331  4.51822916666652 8.75  6.25 8.75  C 7.890625 8.75  9.30989583333348 9.30989583333331  10.5078125 10.4296875  L 17.5390625 6.9140625  C 17.5130208333335 6.62760416666669  17.5 6.40625  17.5 6.25  C 17.5 4.51822916666669  18.1087239583335 3.04361979166669  19.326171875 1.826171875  C 20.5436197916665 0.608723958333314  22.018229166667 0  23.75 0  C 25.4817708333335 0  26.9563802083335 0.608723958333314  28.173828125 1.826171875  C 29.3912760416665 3.04361979166669  30 4.51822916666669  30 6.25  C 30 7.98177083333331  29.3912760416665 9.45638020833331  28.173828125 10.673828125  C 26.9563802083335 11.8912760416667  25.4817708333335 12.5  23.75 12.5  C 22.109375 12.5  20.6901041666665 11.9401041666666  19.4921875 10.8203125  L 12.4609375 14.3359375  C 12.4869791666665 14.6223958333333  12.5 14.84375  12.5 15  C 12.5 15.15625  12.4869791666665 15.3776041666667  12.4609375 15.6640625  L 19.4921875 19.1796875  Z " fill-rule="nonzero" fill="#ffffff" stroke="none" transform="matrix(1 0 0 1 3512 188 )" />
  </g>
</svg>