<?xml version="1.0" encoding="utf-8"?>
<svg version="1.1" xmlns:xlink="http://www.w3.org/1999/xlink" width="30px" height="26px" xmlns="http://www.w3.org/2000/svg">
  <g transform="matrix(1 0 0 1 -3452 -190 )">
    <path d="M 15.7366071428571 25.49765625  C 15.5357142857142 25.69921875  15.2901785714287 25.8  15 25.8  C 14.7098214285713 25.8  14.4642857142858 25.69921875  14.2633928571429 25.49765625  L 3.81696428571422 15.3859375  C 3.70535714285711 15.2963541666667  3.55189732142867 15.15078125  3.35658482142867 14.94921875  C 3.16127232142867 14.74765625  2.8515625 14.3809244791667  2.42745535714289 13.8490234375  C 2.00334821428578 13.3171223958333  1.62388392857133 12.7712239583333  1.2890625 12.211328125  C 0.954241071428669 11.6514322916667  0.655691964285779 10.9739583333333  0.393415178571331 10.17890625  C 0.13113839285711 9.38385416666668  0 8.61119791666667  0 7.86093750000001  C 0 5.39739583333335  0.70870535714289 3.47135416666666  2.12611607142867 2.08281249999999  C 3.54352678571422 0.69427083333332  5.50223214285711 0  8.00223214285711 0  C 8.69419642857133 0  9.40011160714289 0.120377604166663  10.1199776785713 0.361132812499989  C 10.83984375 0.601888020833343  11.5094866071429 0.926627604166669  12.12890625 1.33535156249999  C 12.7483258928571 1.74407552083332  13.28125 2.12760416666666  13.7276785714287 2.48593750000001  C 14.1741071428571 2.84427083333333  14.5982142857142 3.22499999999999  15 3.62812500000001  C 15.4017857142858 3.22499999999999  15.8258928571429 2.84427083333333  16.2723214285713 2.48593750000001  C 16.71875 2.12760416666666  17.2516741071429 1.74407552083332  17.87109375 1.33535156249999  C 18.4905133928571 0.926627604166669  19.16015625 0.601888020833343  19.8800223214287 0.361132812499989  C 20.5998883928571 0.120377604166663  21.3058035714287 0  21.9977678571429 0  C 24.4977678571429 0  26.4564732142858 0.69427083333332  27.8738839285713 2.08281249999999  C 29.2912946428571 3.47135416666666  30 5.39739583333335  30 7.86093750000001  C 30 10.3356770833333  28.7220982142858 12.8552083333333  26.1662946428571 15.41953125  L 15.7366071428571 25.49765625  Z " fill-rule="nonzero" fill="#ffffff" stroke="none" transform="matrix(1 0 0 1 3452 190 )" />
  </g>
</svg>