<?xml version="1.0" encoding="utf-8"?>
<svg version="1.1" xmlns:xlink="http://www.w3.org/1999/xlink" width="30px" height="27px" xmlns="http://www.w3.org/2000/svg">
  <g transform="matrix(1 0 0 1 -3572 -190 )">
    <path d="M 29.6819196428571 8.96062499999999  C 29.8939732142858 9.174375  30 9.42750000000001  30 9.72  C 30 10.0125  29.8939732142858 10.265625  29.6819196428571 10.479375  L 21.1104910714284 19.119375  C 20.8984375 19.333125  20.6473214285716 19.44  20.3571428571429 19.44  C 20.0669642857142 19.44  19.8158482142858 19.333125  19.6037946428571 19.119375  C 19.3917410714287 18.905625  19.2857142857142 18.6525  19.2857142857142 18.36  L 19.2857142857142 14.04  L 15.5357142857142 14.04  C 14.4419642857142 14.04  13.4626116071429 14.07375  12.59765625 14.14125  C 11.7327008928571 14.20875  10.8733258928571 14.3296875  10.01953125 14.5040625  C 9.16573660714289 14.6784375  8.42354910714289 14.9175  7.79296875 15.22125  C 7.16238839285711 15.525  6.57366071428578 15.9159375  6.02678571428578 16.3940625  C 5.47991071428578 16.8721875  5.03348214285734 17.4403125  4.6875 18.0984375  C 4.34151785714266 18.7565625  4.07087053571422 19.535625  3.87555803571422 20.435625  C 3.68024553571422 21.335625  3.58258928571422 22.35375  3.58258928571422 23.49  C 3.58258928571422 24.10875  3.61049107142844 24.800625  3.66629464285711 25.565625  C 3.66629464285711 25.633125  3.68024553571422 25.7653125  3.70814732142844 25.9621875  C 3.73604910714289 26.1590625  3.75 26.308125  3.75 26.409375  C 3.75 26.578125  3.70256696428578 26.71875  3.60770089285711 26.83125  C 3.51283482142867 26.94375  3.38169642857156 27  3.21428571428578 27  C 3.03571428571422 27  2.87946428571422 26.904375  2.74553571428578 26.713125  C 2.66741071428578 26.611875  2.59486607142844 26.488125  2.52790178571422 26.341875  C 2.4609375 26.195625  2.38560267857156 26.026875  2.30189732142844 25.835625  C 2.21819196428578 25.644375  2.15959821428578 25.509375  2.12611607142844 25.430625  C 0.708705357142662 22.224375  0 19.6875  0 17.82  C 0 15.58125  0.295758928571331 13.708125  0.887276785714221 12.200625  C 2.6953125 7.666875  7.578125 5.39999999999998  15.5357142857142 5.39999999999998  L 19.2857142857142 5.39999999999998  L 19.2857142857142 1.07999999999998  C 19.2857142857142 0.787499999999994  19.3917410714287 0.534375000000011  19.6037946428571 0.320625000000007  C 19.8158482142858 0.106875000000002  20.0669642857142 0  20.3571428571429 0  C 20.6473214285716 0  20.8984375 0.106875000000002  21.1104910714284 0.320625000000007  L 29.6819196428571 8.96062499999999  Z " fill-rule="nonzero" fill="#ffffff" stroke="none" transform="matrix(1 0 0 1 3572 190 )" />
  </g>
</svg>