<?xml version="1.0" encoding="utf-8"?>
<svg version="1.1" xmlns:xlink="http://www.w3.org/1999/xlink" width="30px" height="26px" xmlns="http://www.w3.org/2000/svg">
  <g transform="matrix(1 0 0 1 -1983 -1890 )">
    <path d="M 15.3339315377314 12.1707589285716  C 15.4340442572378 12.0703125  15.484100616991 11.9419642857144  15.484100616991 11.7857142857142  C 15.484100616991 11.6294642857144  15.4340442572378 11.5011160714287  15.3339315377314 11.4006696428571  C 15.233818818225 11.3002232142858  15.1058970099668 11.25  14.9501661129568 11.25  C 14.2160061699098 11.25  13.5875207641196 11.5122767857142  13.0647098955862 12.0368303571429  C 12.5418990270527 12.5613839285716  12.280493592786 13.1919642857142  12.280493592786 13.9285714285716  C 12.280493592786 14.0848214285713  12.3305499525391 14.2131696428571  12.4306626720456 14.3136160714287  C 12.530775391552 14.4140625  12.6586971998102 14.4642857142858  12.8144280968201 14.4642857142858  C 12.9701589938301 14.4642857142858  13.0980808020883 14.4140625  13.1981935215947 14.3136160714287  C 13.2983062411011 14.2131696428571  13.3483626008543 14.0848214285713  13.3483626008543 13.9285714285716  C 13.3483626008543 13.4821428571427  13.5040934978643 13.1026785714284  13.8155552918842 12.7901785714287  C 14.1270170859041 12.4776785714284  14.5052206929283 12.3214285714287  14.9501661129568 12.3214285714287  C 15.1058970099668 12.3214285714287  15.233818818225 12.2712053571429  15.3339315377314 12.1707589285716  Z M 17.9702331514001 10.9319196428571  C 18.8045058139535 11.7689732142858  19.2216421452302 12.7790178571427  19.2216421452302 13.9620535714287  C 19.2216421452302 15.1450892857144  18.8045058139535 16.1551339285716  17.9702331514001 16.9921875  C 17.1359604888467 17.8292410714287  16.1292714760323 18.2477678571429  14.9501661129568 18.2477678571429  C 13.7710607498813 18.2477678571429  12.7643717370669 17.8292410714287  11.9300990745135 16.9921875  C 11.0958264119601 16.1551339285716  10.6786900806834 15.1450892857144  10.6786900806834 13.9620535714287  C 10.6786900806834 12.7790178571427  11.0958264119601 11.7689732142858  11.9300990745135 10.9319196428571  C 12.7643717370669 10.0948660714287  13.7710607498813 9.67633928571422  14.9501661129568 9.67633928571422  C 16.1292714760323 9.67633928571422  17.1359604888467 10.0948660714287  17.9702331514001 10.9319196428571  Z M 2.13573801613668 21  L 2.13573801613668 23.5714285714287  L 27.764594209777 23.5714285714287  L 27.764594209777 21  L 2.13573801613668 21  Z M 19.4802666706217 18.5072544642858  C 20.7316756644518 17.2516741071429  21.3573801613669 15.7366071428571  21.3573801613669 13.9620535714287  C 21.3573801613669 12.1875  20.7316756644518 10.6724330357142  19.4802666706217 9.41685267857156  C 18.2288576767916 8.16127232142867  16.71882415757 7.53348214285711  14.9501661129568 7.53348214285711  C 13.1815080683436 7.53348214285711  11.671474549122 8.16127232142867  10.4200655552919 9.41685267857156  C 9.16865656146177 10.6724330357142  8.54295206454677 12.1875  8.54295206454677 13.9620535714287  C 8.54295206454677 15.7366071428571  9.16865656146177 17.2516741071429  10.4200655552919 18.5072544642858  C 11.671474549122 19.7628348214287  13.1815080683436 20.390625  14.9501661129568 20.390625  C 16.71882415757 20.390625  18.2288576767916 19.7628348214287  19.4802666706217 18.5072544642858  Z M 4.27147603227337 1.07142857142867  L 4.27147603227337 3.21428571428578  L 10.6786900806834 3.21428571428578  L 10.6786900806834 1.07142857142867  L 4.27147603227337 1.07142857142867  Z M 2.13573801613668 4.28571428571422  L 2.13573801613668 6.42857142857156  L 27.764594209777 6.42857142857156  L 27.764594209777 4.453125  L 27.764594209777 2.14285714285711  L 13.9490389178927 2.14285714285711  L 12.8811699098244 4.28571428571422  L 2.13573801613668 4.28571428571422  Z M 29.2746277289986 0.627790178571331  C 29.6917640602753 1.04631696428578  29.9003322259136 1.55133928571422  30 2.14285714285711  L 30 23.5714285714287  C 29.9003322259136 24.1629464285716  29.6917640602753 24.66796875  29.2746277289986 25.0864955357144  C 28.8574913977219 25.5050223214287  28.3541468913147 25.7142857142858  27.764594209777 25.7142857142858  L 2.13573801613668 25.7142857142858  C 1.54618533459896 25.7142857142858  1.04284082819177 25.5050223214287  0.625704496915063 25.0864955357144  C 0.208568165638354 24.66796875  0 24.1629464285716  0 23.5714285714287  L 0 2.14285714285711  C 0 1.55133928571422  0.208568165638354 1.04631696428578  0.625704496915063 0.627790178571331  C 1.04284082819177 0.20926339285711  1.54618533459896 0  2.13573801613668 0  L 27.764594209777 0  C 28.3541468913147 0  28.8574913977219 0.20926339285711  29.2746277289986 0.627790178571331  Z " fill-rule="nonzero" fill="#ffffff" stroke="none" transform="matrix(1 0 0 1 1983 1890 )" />
  </g>
</svg>