<?xml version="1.0" encoding="utf-8"?>
<svg version="1.1" xmlns:xlink="http://www.w3.org/1999/xlink" width="30px" height="28px" xmlns="http://www.w3.org/2000/svg">
  <g transform="matrix(1 0 0 1 -3632 -189 )">
    <path d="M 22.734375 24.95859375  C 22.9627403846155 24.7309895833333  23.0769230769231 24.4614583333333  23.0769230769231 24.15  C 23.0769230769231 23.8385416666667  22.9627403846155 23.5690104166667  22.734375 23.34140625  C 22.5060096153845 23.1138020833333  22.2355769230769 23  21.9230769230769 23  C 21.6105769230769 23  21.3401442307693 23.1138020833333  21.1117788461538 23.34140625  C 20.8834134615386 23.5690104166667  20.7692307692307 23.8385416666667  20.7692307692307 24.15  C 20.7692307692307 24.4614583333333  20.8834134615386 24.7309895833333  21.1117788461538 24.95859375  C 21.3401442307693 25.1861979166667  21.6105769230769 25.3  21.9230769230769 25.3  C 22.2355769230769 25.3  22.5060096153845 25.1861979166667  22.734375 24.95859375  Z M 27.3497596153845 24.95859375  C 27.578125 24.7309895833333  27.6923076923076 24.4614583333333  27.6923076923076 24.15  C 27.6923076923076 23.8385416666667  27.578125 23.5690104166667  27.3497596153845 23.34140625  C 27.1213942307693 23.1138020833333  26.8509615384614 23  26.5384615384614 23  C 26.2259615384614 23  25.9555288461538 23.1138020833333  25.7271634615386 23.34140625  C 25.4987980769231 23.5690104166667  25.3846153846155 23.8385416666667  25.3846153846155 24.15  C 25.3846153846155 24.4614583333333  25.4987980769231 24.7309895833333  25.7271634615386 24.95859375  C 25.9555288461538 25.1861979166667  26.2259615384614 25.3  26.5384615384614 25.3  C 26.8509615384614 25.3  27.1213942307693 25.1861979166667  27.3497596153845 24.95859375  Z M 29.4951923076924 18.903125  C 29.8317307692307 19.2385416666667  30 19.6458333333333  30 20.125  L 30 25.875  C 30 26.3541666666667  29.8317307692307 26.7614583333333  29.4951923076924 27.096875  C 29.1586538461538 27.4322916666667  28.75 27.6  28.2692307692307 27.6  L 1.73076923076928 27.6  C 1.25 27.6  0.841346153846189 27.4322916666667  0.504807692307622 27.096875  C 0.168269230769283 26.7614583333333  0 26.3541666666667  0 25.875  L 0 20.125  C 0 19.6458333333333  0.168269230769283 19.2385416666667  0.504807692307622 18.903125  C 0.841346153846189 18.5677083333333  1.25 18.4  1.73076923076928 18.4  L 10.1141826923076 18.4  L 12.5480769230769 20.84375  C 13.2451923076924 21.5145833333333  14.0625 21.85  15 21.85  C 15.9375 21.85  16.7548076923076 21.5145833333333  17.4519230769231 20.84375  L 19.9038461538462 18.4  L 28.2692307692307 18.4  C 28.75 18.4  29.1586538461538 18.5677083333333  29.4951923076924 18.903125  Z M 23.0769230769231 9.19999999999999  C 23.5817307692307 9.19999999999999  23.9362980769231 9.43359375  24.140625 9.90078124999999  C 24.3449519230769 10.3919270833333  24.2608173076924 10.8111979166667  23.8882211538462 11.15859375  L 15.8112980769231 19.20859375  C 15.5949519230769 19.4361979166667  15.3245192307693 19.55  15 19.55  C 14.6754807692307 19.55  14.4050480769231 19.4361979166667  14.1887019230769 19.20859375  L 6.11177884615381 11.15859375  C 5.73918269230762 10.8111979166667  5.65504807692309 10.3919270833333  5.859375 9.90078124999999  C 6.06370192307691 9.43359375  6.41826923076928 9.19999999999999  6.92307692307691 9.19999999999999  L 11.5384615384614 9.19999999999999  L 11.5384615384614 1.15000000000001  C 11.5384615384614 0.838541666666657  11.6526442307693 0.569010416666657  11.8810096153845 0.341406250000006  C 12.109375 0.113802083333326  12.3798076923076 0  12.6923076923076 0  L 17.3076923076924 0  C 17.6201923076924 0  17.890625 0.113802083333326  18.1189903846155 0.341406250000006  C 18.3473557692307 0.569010416666657  18.4615384615386 0.838541666666657  18.4615384615386 1.15000000000001  L 18.4615384615386 9.19999999999999  L 23.0769230769231 9.19999999999999  Z " fill-rule="nonzero" fill="#ffffff" stroke="none" transform="matrix(1 0 0 1 3632 189 )" />
  </g>
</svg>