<?xml version="1.0" encoding="utf-8"?>
<svg version="1.1" xmlns:xlink="http://www.w3.org/1999/xlink" width="24px" height="30px" xmlns="http://www.w3.org/2000/svg">
  <g transform="matrix(1 0 0 1 -2046 -1888 )">
    <path d="M 10.3205965909091 0.31808035714289  C 10.5311079545454 0.530133928571331  10.6363636363636 0.78125  11 1.07142857142867  L 11 11.7857142857142  C 10.6363636363636 12.4665178571429  10.4397017045455 13.0859375  10.0463778409091 13.6439732142858  C 9.65305397727272 14.2020089285713  9.140625 14.5926339285713  8.5090909090909 14.8158482142858  L 8.5090909090909 27.8571428571429  C 8.5090909090909 28.4375  8.29857954545454 28.9397321428571  7.8775568181818 29.3638392857142  C 7.45653409090909 29.7879464285713  6.95795454545453 30  6.38181818181818 30  L 4.25454545454545 30  C 3.6784090909091 30  3.17982954545454 29.7879464285713  2.75880681818182 29.3638392857142  C 2.33778409090908 28.9397321428571  2.12727272727273 28.4375  2.12727272727273 27.8571428571429  L 2.12727272727273 14.8158482142858  C 1.49573863636363 14.5926339285713  0.983309659090907 14.2020089285713  0.589985795454538 13.6439732142858  C 0.19666193181817 13.0859375  0 12.4665178571429  0 11.7857142857142  L 0 1.07142857142867  C 0 0.78125  0.105255681818193 0.530133928571331  0.31576704545455 0.31808035714289  C 0.526278409090907 0.106026785714221  0.775568181818187 0  1.06363636363636 0  C 1.35170454545454 0  1.60099431818182 0.106026785714221  1.81150568181818 0.31808035714289  C 2.02201704545453 0.530133928571331  2.12727272727273 0.78125  2.12727272727273 1.07142857142867  L 2.12727272727273 8.03571428571422  C 2.12727272727273 8.32589285714289  2.23252840909092 8.57700892857133  2.44303977272727 8.7890625  C 2.65355113636363 9.00111607142867  2.90284090909091 9.10714285714289  3.19090909090909 9.10714285714289  C 3.47897727272726 9.10714285714289  3.72826704545454 9.00111607142867  3.9387784090909 8.7890625  C 4.14928977272726 8.57700892857133  4.25454545454545 8.32589285714289  4.25454545454545 8.03571428571422  L 4.25454545454545 1.07142857142867  C 4.25454545454545 0.78125  4.35980113636364 0.530133928571331  4.5703125 0.31808035714289  C 4.78082386363636 0.106026785714221  5.03011363636364 0  5.31818181818181 0  C 5.60624999999999 0  5.85553977272727 0.106026785714221  6.06605113636363 0.31808035714289  C 6.27656249999998 0.530133928571331  6.38181818181818 0.78125  6.38181818181818 1.07142857142867  L 6.38181818181818 8.03571428571422  C 6.38181818181818 8.32589285714289  6.48707386363637 8.57700892857133  6.69758522727273 8.7890625  C 6.90809659090908 9.00111607142867  7.15738636363636 9.10714285714289  7.44545454545454 9.10714285714289  C 7.73352272727271 9.10714285714289  7.98281249999999 9.00111607142867  8.19332386363635 8.7890625  C 8.40383522727271 8.57700892857133  8.5090909090909 8.32589285714289  8.5090909090909 8.03571428571422  L 8.5090909090909 1.07142857142867  C 8.5090909090909 0.78125  8.61434659090909 0.530133928571331  8.82485795454545 0.31808035714289  C 9.03536931818181 0.106026785714221  9.28465909090909 0  9.57272727272726 0  C 9.86079545454544 0  10.1100852272727 0.106026785714221  10.3205965909091 0.31808035714289  Z M 23.0842329545454 0.31808035714289  C 23.2947443181818 0.530133928571331  23.4 0.78125  23 1.07142857142867  L 23 27.8571428571429  C 23.4 28.4375  23.1894886363636 28.9397321428571  22.7684659090909 29.3638392857142  C 22.3474431818182 29.7879464285713  21.8488636363636 30  21.2727272727273 30  L 19.1454545454545 30  C 18.5693181818182 30  18.0707386363636 29.7879464285713  17.6497159090909 29.3638392857142  C 17.2286931818182 28.9397321428571  17.0181818181818 28.4375  17.0181818181818 27.8571428571429  L 17.0181818181818 19.2857142857142  L 13.2954545454546 19.2857142857142  C 13.1514204545454 19.2857142857142  13.0267755681818 19.2327008928571  12.9215198863636 19.1266741071429  C 12.8162642045454 19.0206473214287  12.7636363636364 18.8950892857142  12.7636363636364 18.75  L 12.7636363636364 5.35714285714289  C 12.7636363636364 3.88392857142867  13.284375 2.62276785714289  14.3258522727273 1.57366071428578  C 15.3673295454545 0.524553571428669  16.6193181818182 0  18.0818181818182 0  L 22.3363636363636 0  C 22.6244318181818 0  22.8737215909091 0.106026785714221  23.0842329545454 0.31808035714289  Z " fill-rule="nonzero" fill="#ffffff" stroke="none" transform="matrix(1 0 0 1 2046 1888 )" />
  </g>
</svg>