<?xml version="1.0" encoding="utf-8"?>
<svg version="1.1" xmlns:xlink="http://www.w3.org/1999/xlink" width="30px" height="29px" xmlns="http://www.w3.org/2000/svg">
  <g transform="matrix(1 0 0 1 -1923 -1890 )">
    <path d="M 0 6.0428571428572  L 15 0  L 30 6.0428571428572  L 30 8.05714285714294  L 28 8.05714285714294  C 28 8.32991071428569  27.8932291666667 8.56595982142858  27.6796875 8.76529017857138  C 27.4661458333333 8.9646205357144  27.2135416666667 9.06428571428569  26.921875 9  L 3.078125 9  C 2.78645833333333 9.06428571428569  2.53385416666667 8.9646205357144  2.3203125 8.76529017857138  C 2.10677083333333 8.56595982142858  2 8.32991071428569  2 8.05714285714294  L 0 8.05714285714294  L 0 6.0428571428572  Z M 4 22.1571428571428  L 4 10.0714285714287  L 8 10.0714285714287  L 8 22.1571428571428  L 10 22.1571428571428  L 10 10.0714285714287  L 14 10.0714285714287  L 14 22.1571428571428  L 16 22.1571428571428  L 16 10.0714285714287  L 20 10.0714285714287  L 20 22.1571428571428  L 22 22.1571428571428  L 22 10.0714285714287  L 26 10.0714285714287  L 26 22.1571428571428  L 26.921875 22.1571428571428  C 27.2135416666667 22.1571428571428  27.4661458333333 22.2568080357144  27.6796875 22.4561383928572  C 27.8932291666667 22.65546875  28 22.8915178571428  28 23.1642857142858  L 28 24  L 2 24  L 2 23.1642857142858  C 2 22.8915178571428  2.10677083333333 22.65546875  2.3203125 22.4561383928572  C 2.53385416666667 22.2568080357144  2.78645833333333 22.1571428571428  3.078125 22.1571428571428  L 4 22.1571428571428  Z M 1.078125 25  L 28.921875 25  C 29.2135416666667 25.1785714285716  29.4661458333333 25.2782366071428  29.6796875 25.4775669642856  C 29.8932291666667 25.6768973214287  30 25.9129464285716  30 26.1857142857143  L 30 28  L 0 28  L 0 26.1857142857143  C 0 25.9129464285716  0.106770833333329 25.6768973214287  0.3203125 25.4775669642856  C 0.533854166666671 25.2782366071428  0.786458333333329 25.1785714285716  1.078125 25  Z " fill-rule="nonzero" fill="#ffffff" stroke="none" transform="matrix(1 0 0 1 1923 1890 )" />
  </g>
</svg>