<?xml version="1.0" encoding="utf-8"?>
<svg version="1.1" xmlns:xlink="http://www.w3.org/1999/xlink" width="30px" height="27px" xmlns="http://www.w3.org/2000/svg">
  <g transform="matrix(1 0 0 1 -2043 -2190 )">
    <path d="M 26.30859375 13.1999999999998  L 26.71875 13.1999999999998  C 27.626953125 13.1999999999998  28.40087890625 13.5216517857143  29.04052734375 14.1649553571428  C 29.68017578125 14.8082589285714  30 15.5866071428572  30 16.5  L 30 22.1571428571428  C 30 22.2946428571431  29.9560546875 22.4075892857145  29.8681640625 22.4959821428574  C 29.7802734375 22.5843749999999  29.66796875 22.6285714285714  29.53125 22.6285714285714  L 28.125 22.6285714285714  L 28.125 23.5714285714284  C 28.125 24.3571428571431  27.8515625 25.0250000000001  27.3046875 25.5750000000003  C 26.7578125 26.125  26.09375 26.4000000000001  25.3125 26.4000000000001  C 24.53125 26.4000000000001  23.8671875 26.125  23.3203125 25.5750000000003  C 22.7734375 25.0250000000001  22.5 24.3571428571431  22.5 23.5714285714284  L 22.5 22.6285714285714  L 7.5 22.6285714285714  L 7.5 23.5714285714284  C 7.5 24.3571428571431  7.2265625 25.0250000000001  6.6796875 25.5750000000003  C 6.1328125 26.125  5.46875 26.4000000000001  4.6875 26.4000000000001  C 3.90625 26.4000000000001  3.2421875 26.125  2.6953125 25.5750000000003  C 2.1484375 25.0250000000001  1.875 24.3571428571431  1.875 23.5714285714284  L 1.875 22.6285714285714  L 0.46875 22.6285714285714  C 0.33203125 22.6285714285714  0.2197265625 22.5843749999999  0.1318359375 22.4959821428574  C 0.0439453125 22.4075892857145  0 22.2946428571431  0 22.1571428571428  L 0 16.5  C 0 15.5866071428572  0.31982421875 14.8082589285714  0.95947265625 14.1649553571428  C 1.59912109375 13.5216517857143  2.373046875 13.1999999999998  3.28125 13.1999999999998  L 3.69140625 13.1999999999998  L 5.2294921875 7.02723214285697  C 5.4541015625 6.10401785714294  5.9619140625 5.33058035714294  6.7529296875 4.70691964285697  C 7.5439453125 4.08325892857147  8.41796875 3.77142857142871  9.375 3.77142857142871  L 11.25 3.77142857142871  L 11.25 0.471428571428532  C 11.25 0.333928571428714  11.2939453125 0.220982142857338  11.3818359375 0.132589285714403  C 11.4697265625 0.0441964285714676  11.58203125 0  11.71875 0  L 18.28125 0  C 18.41796875 0  18.5302734375 0.0441964285714676  18.6181640625 0.132589285714403  C 18.7060546875 0.220982142857338  18.75 0.333928571428714  18.75 0.471428571428532  L 18.75 3.77142857142871  L 20.625 3.77142857142871  C 21.58203125 3.77142857142871  22.4560546875 4.08325892857147  23.2470703125 4.70691964285697  C 24.0380859375 5.33058035714294  24.5458984375 6.10401785714294  24.7705078125 7.02723214285697  L 26.30859375 13.1999999999998  Z M 3.0322265625 19.5790178571428  C 3.4912109375 20.0406250000001  4.04296875 20.2714285714287  4.6875 20.2714285714287  C 5.33203125 20.2714285714287  5.8837890625 20.0406250000001  6.3427734375 19.5790178571428  C 6.8017578125 19.1174107142856  7.03125 18.5625  7.03125 17.9142857142856  C 7.03125 17.2660714285716  6.8017578125 16.7111607142856  6.3427734375 16.2495535714288  C 5.8837890625 15.7879464285716  5.33203125 15.5571428571429  4.6875 15.5571428571429  C 4.04296875 15.5571428571429  3.4912109375 15.7879464285716  3.0322265625 16.2495535714288  C 2.5732421875 16.7111607142856  2.34375 17.2660714285716  2.34375 17.9142857142856  C 2.34375 18.5625  2.5732421875 19.1174107142856  3.0322265625 19.5790178571428  Z M 8.8623046875 7.94062500000018  L 7.55859375 13  L 22.44140625 13  L 21.1376953125 7.94062500000018  C 21.1181640625 7.86205357142853  21.0498046875 7.77611607142853  20.9326171875 7.68281250000018  C 20.8154296875 7.58950892857138  20.712890625 7.54285714285697  20.625 8  L 9.375 8  C 9.287109375 7.54285714285697  9.1845703125 7.58950892857138  9.0673828125 7.68281250000018  C 8.9501953125 7.77611607142853  8.8818359375 7.86205357142853  8.8623046875 7.94062500000018  Z M 23.6572265625 19.5790178571428  C 24.1162109375 20.0406250000001  24.66796875 20.2714285714287  25.3125 20.2714285714287  C 25.95703125 20.2714285714287  26.5087890625 20.0406250000001  26.9677734375 19.5790178571428  C 27.4267578125 19.1174107142856  27.65625 18.5625  27.65625 17.9142857142856  C 27.65625 17.2660714285716  27.4267578125 16.7111607142856  26.9677734375 16.2495535714288  C 26.5087890625 15.7879464285716  25.95703125 15.5571428571429  25.3125 15.5571428571429  C 24.66796875 15.5571428571429  24.1162109375 15.7879464285716  23.6572265625 16.2495535714288  C 23.1982421875 16.7111607142856  22.96875 17.2660714285716  22.96875 17.9142857142856  C 22.96875 18.5625  23.1982421875 19.1174107142856  23.6572265625 19.5790178571428  Z " fill-rule="nonzero" fill="#ffffff" stroke="none" transform="matrix(1 0 0 1 2043 2190 )" />
  </g>
</svg>