<?xml version="1.0" encoding="utf-8"?>
<svg version="1.1" xmlns:xlink="http://www.w3.org/1999/xlink" width="35px" height="25px" xmlns="http://www.w3.org/2000/svg">
  <g transform="matrix(1 0 0 1 -2101 -2191 )">
    <path d="M 18.6597389372338 23.25219941349  C 17.8149879651916 24.1143695014662  17.2768931679319 24.5454545454545  17.0454545454546 24.5454545454545  C 16.8140159229772 24.5454545454545  16.2759211257175 24.1143695014662  15.4311701536752 23.25219941349  C 14.586419181633 22.3900293255128  14.1640436956119 21.8416422287387  14.1640436956119 21.6070381231671  C 14.1640436956119 21.231671554252  14.5256665432327 20.9149560117303  15.2489122384744 20.656891495601  C 15.9721579337159 20.3988269794722  16.571005369376 20.2697947214078  17.0454545454546 20.2697947214078  C 17.5199037215331 20.2697947214078  18.1187511571931 20.3988269794722  18.8419968524348 20.656891495601  C 19.5652425476764 20.9149560117303  19.9268653952972 21.231671554252  19.9268653952972 21.6070381231671  C 19.9268653952972 21.8416422287387  19.5044899092761 22.3900293255128  18.6597389372338 23.25219941349  Z M 23.3550499907424 18.4574780058651  C 22.4813691908906 19.3372434017592  21.9403814108499 19.7771260997069  21.7320866506202 19.7771260997069  C 21.7089427883726 19.7771260997069  21.4775041658952 19.6304985337238  21.0377707831883 19.3372434017592  C 20.5980374004814 19.0439882697947  20.0107618959452 18.7507331378301  19.2759442695797 18.4574780058651  C 18.5411266432143 18.1642228739006  17.7976300685058 18.0175953079183  17.0454545454546 18.0175953079183  C 16.2932790224032 18.0175953079183  15.5497824476948 18.1642228739006  14.8149648213293 18.4574780058651  C 14.0801471949639 18.7507331378301  13.4957646732087 19.0439882697947  13.0618172560637 19.3372434017592  C 12.6278698389187 19.6304985337238  12.3935382336605 19.7771260997069  12.3588224402889 19.7771260997069  C 12.1505276800592 19.7771260997069  11.6095399000185 19.3372434017592  10.7358591001666 18.4574780058651  C 9.86217830031478 17.5777126099706  9.4253379003888 17.0322580645161  9.4253379003888 16.8211143695012  C 9.4253379003888 16.6686217008796  9.48319755600818 16.5337243401759  9.59891686724677 16.4164222873901  C 10.5015274949084 15.5131964809384  11.6355767450472 14.8035190615833  13.0010646176634 14.2873900293253  C 14.3665524902796 13.7712609970677  15.71468246621 13.5131964809389  17.0454545454546 13.5131964809389  C 18.3762266246991 13.5131964809389  19.7243566006295 13.7712609970677  21.0898444732456 14.2873900293253  C 22.4553323458618 14.8035190615833  23.5893815960007 15.5131964809384  24.4919922236623 16.4164222873901  C 24.6077115349009 16.5337243401759  24.6655711905203 16.6686217008796  24.6655711905203 16.8211143695012  C 24.6655711905203 17.0322580645161  24.2287307905943 17.5777126099706  23.3550499907424 18.4574780058651  Z M 28.0677189409368 13.6715542521997  C 27.1998241066469 14.5513196480933  26.6675152749491 14.9912023460406  26.4707924458434 14.9912023460406  C 26.3435012034809 14.9912023460406  26.2104239955564 14.9442815249263  26.07156082207 14.8504398826976  C 24.4977781892242 13.6187683284461  23.0397148676171 12.7126099706743  21.6973708572486 12.131964809384  C 20.3550268468802 11.5513196480933  18.8043880762822 11.2609970674484  17.0454545454546 11.2609970674484  C 16.0618403999259 11.2609970674484  15.0753332716164 11.3900293255128  14.0859331605258 11.6480938416416  C 13.0965330494353 11.9061583577713  12.2344241807073 12.2170087976538  11.4996065543418 12.5806451612902  C 10.7647889279763 12.9442815249267  10.1080818366969 13.3079178885628  9.52948528050359 13.6715542521997  C 8.95088872431035 14.0351906158357  8.49379744491762 14.3460410557182  8.15821144232547 14.6041055718474  C 7.82262543973343 14.8621700879762  7.64326050731341 14.9912023460406  7.62011664506576 14.9912023460406  C 7.42339381595997 14.9912023460406  6.89108498426219 14.5513196480933  6.02319014997227 13.6715542521997  C 5.15529531568222 12.7917888563047  4.72134789853732 12.2463343108502  4.72134789853732 12.0351906158357  C 4.72134789853732 11.8944281524928  4.7792075541567 11.7653958944284  4.89492686539529 11.6480938416416  C 6.42242177374561 10.0997067448684  8.27393075356417 8.89736070381241  10.4494538048509 8.04105571847504  C 12.6249768561378 7.18475073313812  14.8236437696723 6.75659824046897  17.0454545454546 6.75659824046897  C 19.2672653212368 6.75659824046897  21.4659322347713 7.18475073313812  23.6414552860581 8.04105571847504  C 25.8169783373449 8.89736070381241  27.6684873171635 10.0997067448684  29.1959822255138 11.6480938416416  C 29.3117015367524 11.7653958944284  29.3695611923718 11.8944281524928  29.3695611923718 12.0351906158357  C 29.3695611923718 12.2463343108502  28.9356137752268 12.7917888563047  28.0677189409368 13.6715542521997  Z M 32.7803878911312 8.9032258064517  C 31.9067070912794 9.78299120234578  31.3715052768006 10.2228739002935  31.1747824476948 10.2228739002935  C 31.0474912053323 10.2228739002935  30.9201999629698 10.1700879765399  30.7929087206073 10.0645161290327  C 28.7215330494353 8.22287390029305  26.5720468431772 6.8357771260994  24.344450101833 5.9032258064517  C 22.1168533604888 4.97067448680355  19.683854841696 4.50439882697947  17.0454545454546 4.50439882697947  C 14.4070542492131 4.50439882697947  11.9740557304203 4.97067448680355  9.74645898907613 5.9032258064517  C 7.51886224773187 6.8357771260994  5.36937604147386 8.22287390029305  3.29800037030185 10.0645161290327  C 3.17070912793923 10.1700879765399  3.04341788557673 10.2228739002935  2.91612664321423 10.2228739002935  C 2.71940381410849 10.2228739002935  2.18420199962975 9.78299120234578  1.31052119977784 8.9032258064517  C 0.436840399925984 8.02346041055716  0 7.47800586510266  0 7.26686217008819  C 0 7.11436950146572  0.0578596556193816 6.97947214076203  0.173578966857974 6.86217008797621  C 2.33753008702092 4.68035190615819  4.91228476208113 2.99120234604106  7.89784299203848 1.79472140762437  C 10.883401221996 0.598240469208122  13.9326050731346 0  17.0454545454546 0  C 20.1583040177745 0  23.2075078689132 0.598240469208122  26.1930660988706 1.79472140762437  C 29.1786243288279 2.99120234604106  31.7533790038882 4.68035190615819  33.9173301240511 6.86217008797621  C 34.0330494352897 6.97947214076203  34.0909090909091 7.11436950146572  34.0909090909091 7.26686217008819  C 34.0909090909091 7.47800586510266  33.6540686909832 8.02346041055716  32.7803878911312 8.9032258064517  Z " fill-rule="nonzero" fill="#ffffff" stroke="none" transform="matrix(1 0 0 1 2101 2191 )" />
  </g>
</svg>