<?xml version="1.0" encoding="utf-8"?>
<svg version="1.1" xmlns:xlink="http://www.w3.org/1999/xlink" width="33px" height="30px" xmlns="http://www.w3.org/2000/svg">
  <g transform="matrix(1 0 0 1 -2162 -2188 )">
    <path d="M 30.5029154518951 5.91043526785688  C 30.9916823872406 6.10295758928532  31.3711198765221 6.37890625  31.6412279197394 6.73828125  C 32.1557194306294 7.4698660714289  32.2714800205797 8.29771205357156  31.9885096895902 9.22181919642844  L 26.6828159835363 26.6643415178573  C 26.4384325158635 27.4857700892853  25.9464500085749 28.1756417410716  25.2068684616704 28.7339564732142  C 24.467286914766 29.2922712053573  23.6794717887155 29.5714285714284  22.8434230835192 29  L 5.03558566283658 29  C 4.04518950437318 29.5714285714284  3.09016463728352 29.2280970982142  2.17051106156754 28.5414341517858  C 1.25085748585144 27.8547712053573  0.610958669181969 27.0108816964284  0.250814611558894 26.009765625  C -0.0578802949751207 25.1498325892858  -0.070742582747414 24.3348214285716  0.212227748242185 23.5647321428573  C 0.212227748242185 23.5133928571427  0.23152117990054 23.3401227678569  0.270108043217306 23.044921875  C 0.308694906534015 22.7497209821427  0.334419482078545 22.5122767857142  0.347281769850781 22.3325892857142  C 0.360144057623074 22.2299107142858  0.340850625964663 22.0919363839284  0.28940147487566 21.9186662946427  C 0.237952323786658 21.7453962053569  0.218658892128303 21.6202566964284  0.23152117990054 21.5432477678573  C 0.257245755445012 21.4020647321427  0.308694906534015 21.2672991071431  0.385868633167604 21.1389508928569  C 0.463042359801079 21.0106026785711  0.569156233922172 20.8597935267858  0.704210255530768 20.6865234375  C 0.839264277139421 20.5132533482138  0.945378151260513 20.3624441964284  1.02255187789399 20.2340959821427  C 1.31838449665582 19.7463727678569  1.60778597153148 19.1591796874995  1.89075630252097 18.4725167410711  C 2.17372663351057 17.7858537946427  2.36666095009429 17.1986607142858  2.46955925227235 16.7109374999995  C 2.50814611558911 16.5825892857142  2.51136168753214 16.3900669642858  2.47920596810155 16.1333705357138  C 2.44705024867091 15.8766741071431  2.44383467672787 15.6969866071427  2.46955925227235 15.5943080357142  C 2.50814611558911 15.4531249999995  2.61747556165324 15.2734375  2.79754759046477 15.0552455357142  C 2.97761961927625 14.8370535714284  3.08694906534038 14.689453125  3.1255359286572 14.6124441964284  C 3.39564397187445 14.150390625  3.66575201509175 13.5599888392858  3.93586005830906 12.8412388392853  C 4.20596810152637 12.1224888392858  4.36674669867949 11.544921875  4.41819584976849 11.1085379464284  C 4.43105813754073 10.9930245535716  4.41498027782541 10.7876674107142  4.36996227062252 10.4924665178573  C 4.32494426341964 10.197265625  4.32815983536273 10.017578125  4.37960898645173 9.95340401785688  C 4.43105813754073 9.78655133928578  4.5725433030355 9.5908203125  4.80406448293604 9.3662109375  C 5.03558566283658 9.1416015625  5.17707082833135 8.99720982142844  5.22851997942036 8.93303571428578  C 5.47290344709313 8.59933035714266  5.74622706225352 8.05705915178578  6.04849082490142 7.30622209821422  C 6.35075458754932 6.55538504464312  6.52761104441777 5.93610491071468  6.57906019550677 5.4483816964289  C 6.59192248327906 5.34570312499955  6.57262905162065 5.18205915178532  6.52117990053165 4.95744977678578  C 6.46973074944265 4.73284040178578  6.45686846167035 4.56277901785688  6.48259303721488 4.447265625  C 6.50831761275936 4.34458705357156  6.56619790773453 4.22907366071422  6.65623392214025 4.1007254464289  C 6.74626993654607 3.97237723214266  6.86203052649631 3.82477678571422  7.00351569199108 3.65792410714266  C 7.14500085748585 3.4910714285711  7.25433030354998 3.35630580357156  7.33150403018351 3.25362723214312  C 7.43440233236151 3.099609375  7.54051620648261 2.90387834821468  7.64984565254673 2.66643415178578  C 7.75917509861091 2.42898995535734  7.8556422569028 2.20438058035688  7.93924712742239 1.99260602678578  C 8.02285199794198 1.78083147321422  8.1257503001201 1.5498046875  8.24794203395646 1.29952566964266  C 8.37013376779288 1.04924665178532  8.49554107357233 0.843889508928442  8.6241639512948 0.683454241071559  C 8.75278682901734 0.523018973214221  8.92321214199967 0.372209821428442  9.1354398902418 0.231026785714221  C 9.34766763848398 0.08984375  9.57918881838447 0.0160435267857793  9.83000342994342 0.0096261160715585  C 10.0808180415023 0.00320870535733775  10.3862973760933 0.0385044642853245  10.7464414337163 0.115513392856883  L 10.727148002058 0.173270089285779  C 11.2159149374035 0.0577566964288962  11.5439032755959 0  11.7111130166352 0  L 26.3934145086606 0  C 27.3452238038073 0  28.0783742068256 0.359375  28.5928657177157 1.078125  C 29.1073572286058 1.796875  29.223117818556 2.63113839285688  28.9401474875665 3.58091517857156  L 23.653747213171 21.0234375  C 23.1907048533699 22.55078125  22.7308780655119 23.5358537946427  22.274266849597 23.9786551339284  C 21.8176556336821 24.4214564732142  20.9912536443148 24.6428571428573  19.7950608814955 24.6428571428573  L 3.02906877036526 24.6428571428573  C 2.68178700051448 24.6428571428573  2.4374035328417 24.7391183035716  2.29591836734699 24.931640625  C 2.15443320185216 25.1369977678569  2.1480020579661 25.4129464285716  2.27662493568857 25.7594866071427  C 2.58531984222259 26.6579241071431  3.51140456182475 27.1071428571427  5.05487909449494 27  L 22.8627165151775 27  C 23.2357228605728 27.1071428571427  23.5958669181958 27.0076729910716  23.9431486880466 26.8087332589284  C 24.2904304578975 26.6097935267858  24.5155204939118 26.3434709821427  24.6184187960899 26.009765625  L 30.4064482936031 7.0078125  C 30.496484308009 6.72544642857156  30.5286400274396 6.35965401785688  30.5029154518951 5.91043526785688  Z M 11.5181787000514 5.54464285714312  L 11.1130166352255 6.77678571428532  C 11.0615674841365 6.94363839285688  11.0744297719088 7.08803013392844  11.1516034985423 7.2099609375  C 11.2287772251758 7.33189174107156  11.3574001028983 7.39285714285734  11.5374721317098 7.39285714285734  L 23.2678785800034 7.39285714285734  C 23.4350883210427 7.39285714285734  23.599082490139 7.33189174107156  23.7598610872921 7.2099609375  C 23.9206396844452 7.08803013392844  24.0267535585663 6.94363839285688  24.0782027096553 6.77678571428532  L 24.4833647744812 5.54464285714312  C 24.5348139255702 5.37779017857156  24.521951637798 5.2333984375  24.4447779111645 5.1114676339289  C 24.3676041845309 4.98953683035688  24.2389813068085 4.92857142857156  24.0589092779969 5  L 12.3285028297033 5  C 12.161293088664 4.92857142857156  11.9972989195679 4.98953683035688  11.8365203224147 5.1114676339289  C 11.6757417252616 5.2333984375  11.5696278511404 5.37779017857156  11.5181787000514 5.54464285714312  Z M 9.9168238724061 10.4732142857142  L 9.5116618075802 11.7053571428573  C 9.46021265649114 11.8722098214284  9.47307494426343 12.0166015625  9.55024867089691 12.1385323660716  C 9.62742239753044 12.2604631696431  9.75604527525297 12.3214285714284  9.93611730406451 12.3214285714284  L 21.6665237523581 12.3214285714284  C 21.8337334933973 12.3214285714284  21.9977276624936 12.2604631696431  22.1585062596467 12.1385323660716  C 22.3192848567999 12.0166015625  22.425398730921 11.8722098214284  22.47684788201 11.7053571428573  L 22.8820099468359 10.4732142857142  C 22.9334590979249 10.3063616071427  22.9205968101526 10.1619698660716  22.8434230835192 10.0400390625  C 22.7662493568856 9.91810825892844  22.6376264791631 9.85714285714266  22.4575544503516 10  L 10.727148002058 10  C 10.5599382610187 9.85714285714266  10.3959440919225 9.91810825892844  10.2351654947694 10.0400390625  C 10.0743868976162 10.1619698660716  9.9682730234951 10.3063616071427  9.9168238724061 10.4732142857142  Z " fill-rule="nonzero" fill="#ffffff" stroke="none" transform="matrix(1 0 0 1 2162 2188 )" />
  </g>
</svg>