<?xml version="1.0" encoding="utf-8"?>
<svg version="1.1" xmlns:xlink="http://www.w3.org/1999/xlink" width="30px" height="25px" xmlns="http://www.w3.org/2000/svg">
  <g transform="matrix(1 0 0 1 -1923 -2495 )">
    <path d="M 10.7672275641026 21.129261363636  C 11.2203334859585 21.579071969697  11.4468864468865 22.1117424242425  11.4468864468865 22.727272727273  C 11.4468864468865 23.342803030303  11.2203334859585 23.8754734848485  10.7672275641026 24.325284090909  C 10.3141216422466 24.7750946969695  9.77754884004887 25  9.15750915750914 25  C 8.5374694749695 25  8.00089667277169 24.7750946969695  7.54779075091574 24.325284090909  C 7.09468482905982 23.8754734848485  6.86813186813188 23.342803030303  6.86813186813188 22.727272727273  C 6.86813186813188 22.1117424242425  7.09468482905982 21.579071969697  7.54779075091574 21.129261363636  C 8.00089667277169 20.679450757576  8.5374694749695 20.4545454545455  9.15750915750914 20.4545454545455  C 9.77754884004887 20.4545454545455  10.3141216422466 20.679450757576  10.7672275641026 21.129261363636  Z M 26.7928685897436 21.129261363636  C 27.2459745115995 21.579071969697  27.4725274725275 22.1117424242425  27.4725274725275 22.727272727273  C 27.4725274725275 23.342803030303  27.2459745115995 23.8754734848485  26.7928685897436 24.325284090909  C 26.3397626678877 24.7750946969695  25.8031898656899 25  25.1831501831502 25  C 24.5631105006105 25  24.0265376984127 24.7750946969695  23.5734317765568 24.325284090909  C 23.1203258547009 23.8754734848485  22.8937728937729 23.342803030303  22.8937728937729 22.727272727273  C 22.8937728937729 22.1117424242425  23.1203258547009 21.579071969697  23.5734317765568 21.129261363636  C 24.0265376984127 20.679450757576  24.5631105006105 20.4545454545455  25.1831501831502 20.4545454545455  C 25.8031898656899 20.4545454545455  26.3397626678877 20.679450757576  26.7928685897436 21.129261363636  Z M 29.4220753205128 2.61008522727298  C 29.6486282814408 2.834990530303  29.7619047619048 3.10132575757598  29.7619047619048 3.40909090909099  L 29.7619047619048 12.5  C 29.7619047619048 12.784090909091  29.6635330815018 13.0356297348485  29.4667897206959 13.254616477273  C 29.2700463598901 13.473603219697  29.0285885989011 13.600852272727  28.7424164377289 13.636363636364  L 10.0696829212454 15.8025568181815  C 10.2246928418803 16.512784090909  10.3021978021978 16.9270833333335  10.3021978021978 17.0454545454545  C 10.3021978021978 17.2348484848485  10.1591117216117 17.613636363636  9.87293956043956 18  L 26.3278388278388 18  C 26.6378586691087 18.1818181818185  26.9061450702076 18.2942708333335  27.1326980311355 18.519176136364  C 27.3592509920635 18.744081439394  27.4725274725275 19.0104166666665  27.4725274725275 19.3181818181815  C 27.4725274725275 19.625946969697  27.3592509920635 19.8922821969695  27.1326980311355 20.1171875  C 26.9061450702076 20.3420928030305  26.6378586691087 20.4545454545455  26.3278388278388 20  L 8.0128205128205 20  C 7.70280067155068 20.4545454545455  7.43451427045179 20.3420928030305  7.20796130952382 20.1171875  C 6.98140834859583 19.8922821969695  6.86813186813188 19.625946969697  6.86813186813188 19.3181818181815  C 6.86813186813188 19.1879734848485  6.91582722832723 19.0015388257575  7.01121794871796 18.758877840909  C 7.10660866910865 18.5162168560605  7.20199938949941 18.3031486742425  7.29739010989013 18.1196732954545  C 7.39278083028083 17.9361979166665  7.52096211080587 17.699455492424  7.6819339514652 17.409446022727  C 7.84290579212455 17.1194365530305  7.93531555250306 16.9448390151515  7.95916323260073 16.885653409091  L 4.79338369963369 2.27272727272702  L 1.14468864468864 2.27272727272702  C 0.834668803418822 2.27272727272702  0.566382402319903 2.16027462121201  0.339829441391942 1.93536931818153  C 0.113276480463981 1.7104640151515  0 1.44412878787898  0 1.13636363636397  C 0 0.828598484848499  0.113276480463981 0.562263257575978  0.339829441391942 0.337357954545496  C 0.566382402319903 0.112452651515014  0.834668803418822 0  1.14468864468864 0  L 5.72344322344324 0  C 5.91422466422466 0  6.08413938492063 0.0384706439394904  6.23318738553115 0.115411931818471  C 6.38223538614164 0.192353219696997  6.49849282661785 0.284090909090992  6.58195970695971 0.390625  C 6.66542658730157 0.497159090909008  6.74293154761904 0.642163825757507  6.81447458791209 0.825639204545496  C 6.88601762820514 1.00911458333348  6.93371298840049 1.16299715909099  6.95756066849816 1.28728693181847  C 6.98140834859586 1.4115767045455  7.01419890873018 1.58617424242402  7.05593234890108 1.8110795454545  C 7.09766578907204 2.03598484848499  7.12449442918194 2.18986742424249  7.13641826923077 2.27272727272702  L 28.6172161172161 2.27272727272702  C 28.927235958486 2.27272727272702  29.1955223595849 2.38517992424249  29.4220753205128 2.61008522727298  Z " fill-rule="nonzero" fill="#ffffff" stroke="none" transform="matrix(1 0 0 1 1923 2495 )" />
  </g>
</svg>