<?xml version="1.0" encoding="utf-8"?>
<svg version="1.1" xmlns:xlink="http://www.w3.org/1999/xlink" width="19px" height="35px" xmlns="http://www.w3.org/2000/svg">
  <g transform="matrix(1 0 0 1 -2169 -2490 )">
    <path d="M 17.9466809421842 21.3085937500005  C 18.1155603140614 21.8815104166665  18.2 22.4934895833335  18.2 23.14453125  C 18.2 25.1367187500005  17.5537116345467 26.8522135416665  16.2611349036403 28.291015625  C 14.9685581727338 29.7298177083335  13.2895074946467 30.6184895833335  11.223982869379 30.95703125  L 11.223982869379 34.375  C 11.223982869379 34.557291666667  11.1655246252677 34.7070312500005  11.048608137045 34.82421875  C 10.9316916488222 34.94140625  10.7822983583155 35  10.6004282655246 35  L 7.96980728051392 35  C 7.80092790863671 35  7.65478229835833 34.9381510416665  7.53137044967878 34.8144531249995  C 7.40795860099934 34.690755208333  7.34625267665956 34.544270833333  7.34625267665956 34.375  L 7.34625267665956 30.95703125  C 6.4888650963598 30.83984375  5.66070663811558 30.6380208333335  4.86177730192719 30.3515625  C 4.06284796573874 30.0651041666665  3.40356887937185 29.775390625  2.88394004282651 29.4824218749995  C 2.36431120628117 29.189453125  1.88365453247684 28.876953125  1.44197002141328 28.544921875  C 1.00028551034978 28.2128906250005  0.698251249107784 27.96875  0.535867237687341 27.8125  C 0.373483226266956 27.65625  0.25981441827264 27.5390625  0.194860813704508 27.4609375000005  C -0.0259814418272981 27.1875000000005  -0.0389721627408903 26.9205729166665  0.155888650963618 26.66015625  L 2.16295503211995 24.0234375  C 2.25389007851538 23.893229166667  2.40328336902206 23.8151041666665  2.61113490364028 23.7890625  C 2.80599571734473 23.7630208333335  2.96188436830829 23.821614583333  3.07880085653107 23.96484375  L 3.11777301927197 24.00390625  C 4.58572448251249 25.29296875  6.16409707351897 26.1067708333335  7.85289079229125 26.4453125  C 8.33354746609564 26.5494791666665  8.81420413990008 26.6015625  9.29486081370453 26.6015625  C 10.3471092077087 26.6015625  11.2726980728051 26.3216145833335  12.0716274089935 25.76171875  C 12.870556745182 25.201822916667  13.2700214132763 24.4075520833335  13.2700214132763 23.37890625  C 13.2700214132763 23.014322916667  13.1725910064239 22.6692708333335  12.9777301927195 22.34375  C 12.782869379015 22.0182291666665  12.5652748037116 21.7447916666665  12.3249464668095 21.5234375  C 12.0846181299072 21.3020833333335  11.7046395431835 21.0579427083335  11.1850107066381 20.791015625  C 10.6653818700928 20.524088541667  10.2366880799429 20.3157552083335  9.89892933618842 20.166015625  C 9.561170592434 20.0162760416665  9.04154175588866 19.8046875000005  8.34004282655246 19.5312500000005  C 7.83340471092077 19.322916666667  7.43394004282658 19.1601562499995  7.14164882226987 19.04296875  C 6.84935760171311 18.92578125  6.44989293361891 18.753255208333  5.94325481798717 18.525390625  C 5.43661670235542 18.297526041667  5.03065667380446 18.0957031250005  4.72537473233405 17.919921875  C 4.42009279086363 17.744140625  4.05310492505356 17.5130208333335  3.62441113490365 17.2265625  C 3.19571734475375 16.9401041666665  2.84821556031409 16.663411458333  2.58190578158462 16.396484375  C 2.31559600285516 16.1295572916665  2.03304782298358 15.8105468749995  1.73426124196999 15.439453125  C 1.43547466095646 15.068359375  1.20488936473953 14.6907552083335  1.04250535331909 14.3066406249995  C 0.880121341898644 13.922526041667  0.743718772305499 13.489583333333  0.633297644539596 13.0078124999995  C 0.522876516773749 12.526041666667  0.467665952890854 12.0182291666665  0.467665952890854 11.484375  C 0.467665952890854 9.68750000000045  1.10421127765886 8.11197916666697  2.37730192719488 6.7578125  C 3.65039257673095 5.40364583333348  5.30670949321916 4.53124999999955  7.34625267665956 4.140625  L 7.34625267665956 0.625  C 7.34625267665956 0.45572916666697  7.40795860099934 0.30924479166697  7.53137044967878 0.185546875000455  C 7.65478229835833 0.0618489583334849  7.80092790863671 0  7.96980728051392 0  L 10.6004282655246 0  C 10.7822983583155 0  10.9316916488222 0.05859375  11.048608137045 0.17578125  C 11.1655246252677 0.292968749999545  11.223982869379 0.44270833333303  11.223982869379 0.625  L 11.223982869379 4.0625  C 11.9644539614561 4.140625  12.6821912919344 4.29036458333303  13.3771948608137 4.51171875  C 14.0721984296931 4.73307291666697  14.6372947894362 4.951171875  15.0724839400428 5.166015625  C 15.5076730906495 5.38085937500045  15.9201284796574 5.62499999999955  16.3098501070664 5.89843749999955  C 16.6995717344754 6.17187499999955  16.9528907922913 6.36067708333348  17.0698072805139 6.46484375  C 17.1867237687366 6.56901041666651  17.2841541755889 6.66015625  17.3620985010706 6.73828125  C 17.5829407566025 6.97265625  17.6154175588865 7.22005208333348  17.4595289079229 7.48046875  L 15.8811563169165 10.33203125  C 15.7772305496074 10.52734375  15.6278372591007 10.631510416667  15.4329764453962 10.6445312500005  C 15.2511063526053 10.6835937499995  15.0757316202713 10.6380208333335  14.906852248394 10.5078125000005  C 14.8678800856531 10.46875  14.7736973590293 10.390625  14.6243040685225 10.2734374999995  C 14.4749107780157 10.15625  14.2215917201999 9.98372395833348  13.8643468950749 9.75585937500045  C 13.50710206995 9.52799479166652  13.1271234832262 9.31966145833303  12.7244111349037 9.130859375  C 12.321698786581 8.94205729166652  11.8377944325482 8.77278645833303  11.2726980728051 8.623046875  C 10.7076017130621 8.47330729166652  10.1522483940043 8.3984375  9.60663811563171 8.3984375  C 8.37251962883653 8.3984375  7.36573875803003 8.67838541666652  6.586295503212 9.23828125  C 5.80685224839402 9.79817708333303  5.41713062098501 10.5208333333335  5.41713062098501 11.40625  C 5.41713062098501 11.7447916666665  5.47234118486801 12.0572916666665  5.58276231263386 12.34375  C 5.69318344039976 12.630208333333  5.88479657387586 12.9003906250005  6.15760171306209 13.154296875  C 6.43040685224844 13.408203125  6.68697359029267 13.6230468749995  6.92730192719489 13.798828125  C 7.16763026409711 13.974609375  7.53137044967878 14.1764322916665  8.01852248394005 14.4042968750005  C 8.50567451820126 14.6321614583335  8.89864382583863 14.8079427083335  9.19743040685222 14.931640625  C 9.49621698786575 15.055338541667  9.95089221984301 15.234375  10.5614561027837 15.4687499999995  C 11.2499643112063 15.7291666666665  11.7760885082084 15.9342447916665  12.1398286937902 16.0839843749995  C 12.5035688793719 16.233723958333  12.99721627409 16.4615885416665  13.6207708779443 16.7675781249995  C 14.2443254817987 17.073567708333  14.7347251962884 17.3502604166665  15.0919700214133 17.59765625  C 15.4492148465382 17.8450520833335  15.8519271948608 18.1705729166665  16.3001070663811 18.5742187500005  C 16.7482869379015 18.9778645833335  17.0925410421128 19.391276041667  17.3328693790149 19.814453125  C 17.5731977159172 20.2376302083335  17.777801570307 20.735677083333  17.9466809421842 21.3085937500005  Z " fill-rule="nonzero" fill="#ffffff" stroke="none" transform="matrix(1 0 0 1 2169 2490 )" />
  </g>
</svg>