<?xml version="1.0" encoding="utf-8"?>
<svg version="1.1" xmlns:xlink="http://www.w3.org/1999/xlink" width="34px" height="30px" xmlns="http://www.w3.org/2000/svg">
  <g transform="matrix(1 0 0 1 -2221 -3119 )">
    <path d="M 28.3416252072968 27.421875  L 29.7180762852405 26.0323660714284  C 29.9281370923162 25.8203125  30.1768933112218 25.7142857142858  30.4643449419569 25.7142857142858  C 30.7517965726921 25.7142857142858  31.0005527915976 25.8203125  31.2106135986734 26.0323660714284  L 33.3333333333334 28.1752232142858  L 31.8407960199005 29.6819196428573  L 30.4643449419569 28.2924107142858  L 29.0878938640133 29.6819196428573  C 28.8888888888889 29.8939732142858  28.6401326699835 30  28.3416252072968 30  C 28.0431177446103 30  27.7943615257049 29.8939732142858  27.5953565505805 29.6819196428573  L 26.2189054726368 28.2924107142858  L 24.8424543946933 29.6819196428573  C 24.6323935876175 29.8939732142858  24.383637368712 30  24.0961857379768 30  C 23.8087341072415 30  23.5599778883361 29.8939732142858  23.3499170812604 29.6819196428573  L 21.9734660033167 28.2924107142858  L 20.5970149253732 29.6819196428573  C 20.3869541182975 29.8939732142858  20.1381978993919 30  19.8507462686567 30  C 19.5632946379216 30  19.314538419016 29.8939732142858  19.1044776119403 29.6819196428573  L 17.7280265339967 28.2924107142858  L 16.3515754560531 29.6819196428573  C 16.1415146489774 29.8939732142858  15.8927584300719 30  15.6053067993366 30  C 15.3178551686015 30  15.069098949696 29.8939732142858  14.8590381426202 29.6819196428573  L 13.4825870646766 28.2924107142858  L 12.106135986733 29.6819196428573  C 11.8960751796573 29.8939732142858  11.6473189607518 30  11.3598673300166 30  C 11.0724156992814 30  10.8236594803759 29.8939732142858  10.6135986733002 29.6819196428573  L 9.23714759535653 28.2924107142858  L 7.86069651741298 29.6819196428573  C 7.65063571033716 29.8939732142858  7.40187949143171 30  7.11442786069654 30  C 6.82697622996136 30  6.57822001105581 29.8939732142858  6.3681592039801 29.6819196428573  L 4.99170812603654 28.2924107142858  L 3.61525704809287 29.6819196428573  C 3.40519624101717 29.8939732142858  3.15644002211172 30  2.86898839137643 30  C 2.58153676064126 30  2.33278054173581 29.8939732142858  2.12271973466 29.6819196428573  L 0 27.5390625  L 1.49253731343288 26.0323660714284  L 2.86898839137643 27.421875  L 4.2454394693201 26.0323660714284  C 4.45550027639581 25.8203125  4.70425649530125 25.7142857142858  4.99170812603654 25.7142857142858  C 5.27915975677172 25.7142857142858  5.52791597567716 25.8203125  5.73797678275287 26.0323660714284  L 7.11442786069654 27.421875  L 8.49087893864009 26.0323660714284  C 8.70093974571591 25.8203125  8.94969596462136 25.7142857142858  9.23714759535653 25.7142857142858  C 9.52459922609182 25.7142857142858  9.77335544499726 25.8203125  9.98341625207297 26.0323660714284  L 11.3598673300166 27.421875  L 12.7363184079602 26.0323660714284  C 12.9463792150359 25.8203125  13.1951354339415 25.7142857142858  13.4825870646766 25.7142857142858  C 13.7700386954118 25.7142857142858  14.0187949143174 25.8203125  14.2288557213931 26.0323660714284  L 15.6053067993366 27.421875  L 16.9817578772803 26.0323660714284  C 17.191818684356 25.8203125  17.4405749032614 25.7142857142858  17.7280265339967 25.7142857142858  C 18.0154781647319 25.7142857142858  18.2642343836374 25.8203125  18.4742951907131 26.0323660714284  L 19.8507462686567 27.421875  L 21.2271973466004 26.0323660714284  C 21.4372581536761 25.8203125  21.6860143725816 25.7142857142858  21.9734660033167 25.7142857142858  C 22.260917634052 25.7142857142858  22.5096738529575 25.8203125  22.7197346600332 26.0323660714284  L 24.0961857379768 27.421875  L 25.4726368159204 26.0323660714284  C 25.6826976229961 25.8203125  25.9314538419017 25.7142857142858  26.2189054726368 25.7142857142858  C 26.506357103372 25.7142857142858  26.7551133222776 25.8203125  26.9651741293533 26.0323660714284  L 28.3416252072968 27.421875  Z M 4.99170812603654 24.0066964285716  L 3.61525704809287 25.3962053571427  C 3.40519624101717 25.6082589285716  3.15644002211172 25.7142857142858  2.86898839137643 25.7142857142858  C 2.58153676064126 25.7142857142858  2.33278054173581 25.6082589285716  2.12271973466 25.3962053571427  L 0 23.2533482142858  L 1.49253731343288 21.7466517857142  L 2.86898839137643 23.1194196428573  L 4.2454394693201 21.7466517857142  C 4.45550027639581 21.5345982142858  4.70425649530125 21.4285714285716  4.99170812603654 21.4285714285716  C 5.27915975677172 21.4285714285716  5.52791597567716 21.5345982142858  5.73797678275287 21.7466517857142  L 7.11442786069654 23.1194196428573  L 8.17578772802653 22.0479910714284  L 8.17578772802653 17.1428571428573  L 4.6932006633499 11.8861607142858  C 4.5052515201769 11.5959821428573  4.46655610834716 11.2806919642858  4.57711442786069 10.9402901785716  C 4.68767274737422 10.5998883928573  4.90878938640128 10.3738839285716  5.24046434494198 10.2622767857142  L 8.17578772802653 9.29129464285734  L 8.17578772802653 4.28571428571422  L 10.2985074626865 4.28571428571422  L 10.2985074626865 2.14285714285734  L 14.5439469320066 2.14285714285734  L 14.5439469320066 0  L 18.7893864013267 0  L 18.7893864013267 2.14285714285734  L 23.0348258706468 2.14285714285734  L 23.0348258706468 4.28571428571422  L 25.1575456053068 4.28571428571422  L 25.1575456053068 9.29129464285734  L 28.0928689883914 10.2622767857142  C 28.4245439469321 10.3738839285716  28.6456605859591 10.5998883928573  28.7562189054727 10.9402901785716  C 28.8667772249862 11.2806919642858  28.8280818131565 11.5959821428573  28.6401326699835 11.8861607142858  L 25.1575456053068 17.1428571428573  L 25.1575456053068 22.0479910714284  L 25.4726368159204 21.7466517857142  C 25.6826976229961 21.5345982142858  25.9314538419017 21.4285714285716  26.2189054726368 21.4285714285716  C 26.506357103372 21.4285714285716  26.7551133222776 21.5345982142858  26.9651741293533 21.7466517857142  L 28.3416252072968 23.1194196428573  L 29.7180762852405 21.7466517857142  C 29.9281370923162 21.5345982142858  30.1768933112218 21.4285714285716  30.4643449419569 21.4285714285716  C 30.7517965726921 21.4285714285716  31.0005527915976 21.5345982142858  31.2106135986734 21.7466517857142  L 33.3333333333334 23.8895089285716  L 31.8407960199005 25.3962053571427  L 30.4643449419569 24.0066964285716  L 29.0878938640133 25.3962053571427  C 28.8888888888889 25.6082589285716  28.6401326699835 25.7142857142858  28.3416252072968 25.7142857142858  C 28.0431177446103 25.7142857142858  27.7943615257049 25.6082589285716  27.5953565505805 25.3962053571427  L 26.2189054726368 24.0066964285716  L 24.8424543946933 25.3962053571427  C 24.6323935876175 25.6082589285716  24.383637368712 25.7142857142858  24.0961857379768 25.7142857142858  C 23.8087341072415 25.7142857142858  23.5599778883361 25.6082589285716  23.3499170812604 25.3962053571427  L 21.9734660033167 24.0066964285716  L 20.5970149253732 25.3962053571427  C 20.3869541182975 25.6082589285716  20.1381978993919 25.7142857142858  19.8507462686567 25.7142857142858  C 19.5632946379216 25.7142857142858  19.314538419016 25.6082589285716  19.1044776119403 25.3962053571427  L 17.7280265339967 24.0066964285716  L 16.3515754560531 25.3962053571427  C 16.1415146489774 25.6082589285716  15.8927584300719 25.7142857142858  15.6053067993366 25.7142857142858  C 15.3178551686015 25.7142857142858  15.069098949696 25.6082589285716  14.8590381426202 25.3962053571427  L 13.4825870646766 24.0066964285716  L 12.106135986733 25.3962053571427  C 11.8960751796573 25.6082589285716  11.6473189607518 25.7142857142858  11.3598673300166 25.7142857142858  C 11.0724156992814 25.7142857142858  10.8236594803759 25.6082589285716  10.6135986733002 25.3962053571427  L 9.23714759535653 24.0066964285716  L 7.86069651741298 25.3962053571427  C 7.65063571033716 25.6082589285716  7.40187949143171 25.7142857142858  7.11442786069654 25.7142857142858  C 6.82697622996136 25.7142857142858  6.57822001105581 25.6082589285716  6.3681592039801 25.3962053571427  L 4.99170812603654 24.0066964285716  Z M 12.4212271973466 6.42857142857156  L 10.2985074626865 6.42857142857156  L 10.2985074626865 8.57142857142844  L 16.6666666666667 6.42857142857156  L 23.0348258706468 8.57142857142844  L 23.0348258706468 6.42857142857156  L 20.9121061359867 6.42857142857156  L 20.9121061359867 4.28571428571422  L 12.4212271973466 4.28571428571422  L 12.4212271973466 6.42857142857156  Z " fill-rule="nonzero" fill="#ffffff" stroke="none" transform="matrix(1 0 0 1 2221 3119 )" />
  </g>
</svg>