<?xml version="1.0" encoding="utf-8"?>
<svg version="1.1" xmlns:xlink="http://www.w3.org/1999/xlink" width="30px" height="35px" xmlns="http://www.w3.org/2000/svg">
  <g transform="matrix(1 0 0 1 -2043 -3409 )">
    <path d="M 8.75 0  L 21.25 0  C 23.6588541666667 0  25.7194010416667 0.606701619601154  27.431640625 1.82010485880392  C 29.1438802083333 3.03350809800668  30 4.50321843853817  30 6.22923588039885  L 30 23.6710963455148  C 30 25.3581810631226  29.1829427083333 26.7986918604652  27.548828125 27.9926287375415  C 25.9147135416667 29.1865656146178  23.92578125 29.8159779900329  21.58203125 29.8808658637872  L 25.7421875 33.8130710132887  C 25.9505208333333 34.0077346345515  26.0026041666667 34.2348421926908  25.8984375 34.4943936877075  C 25.7942708333333 34.7539451827242  25.5989583333333 34.8837209302324  25.3125 34.8837209302324  L 4.6875 34.8837209302324  C 4.40104166666669 34.8837209302324  4.20572916666669 34.7539451827242  4.1015625 34.4943936877075  C 3.99739583333331 34.2348421926908  4.04947916666669 34.0077346345515  4.2578125 33.8130710132887  L 8.41796875 29.8808658637872  C 6.07421875 29.8159779900329  4.08528645833331 29.1865656146178  2.451171875 27.9926287375415  C 0.817057291666686 26.7986918604652  0 25.3581810631226  0 23.6710963455148  L 0 6.22923588039885  C 0 4.50321843853817  0.856119791666686 3.03350809800668  2.568359375 1.82010485880392  C 4.28059895833331 0.606701619601154  6.34114583333331 0  8.75 0  Z M 3.41796875 24.6249480897009  C 4.02994791666669 25.23489410299  4.765625 25.5398671096345  5.625 25.5398671096345  C 6.484375 25.5398671096345  7.22005208333331 25.23489410299  7.83203125 24.6249480897009  C 8.44401041666669 24.0150020764117  8.75 23.28176910299  8.75 22.4252491694351  C 8.75 21.5687292358803  8.44401041666669 20.8354962624585  7.83203125 20.2255502491694  C 7.22005208333331 19.6156042358803  6.484375 19.3106312292357  5.625 19.3106312292357  C 4.765625 19.3106312292357  4.02994791666669 19.6156042358803  3.41796875 20.2255502491694  C 2.80598958333331 20.8354962624585  2.5 21.5687292358803  2.5 22.4252491694351  C 2.5 23.28176910299  2.80598958333331 24.0150020764117  3.41796875 24.6249480897009  Z M 3.125 15  L 14 15  L 14 5  L 3.125 5  L 3.125 15  Z M 22.16796875 24.6249480897009  C 22.7799479166667 25.23489410299  23.515625 25.5398671096345  24.375 25.5398671096345  C 25.234375 25.5398671096345  25.9700520833333 25.23489410299  26.58203125 24.6249480897009  C 27.1940104166667 24.0150020764117  27.5 23.28176910299  27.5 22.4252491694351  C 27.5 21.5687292358803  27.1940104166667 20.8354962624585  26.58203125 20.2255502491694  C 25.9700520833333 19.6156042358803  25.234375 19.3106312292357  24.375 19.3106312292357  C 23.515625 19.3106312292357  22.7799479166667 19.6156042358803  22.16796875 20.2255502491694  C 21.5559895833333 20.8354962624585  21.25 21.5687292358803  21.25 22.4252491694351  C 21.25 23.28176910299  21.5559895833333 24.0150020764117  22.16796875 24.6249480897009  Z M 16 15  L 27 15  L 27 5  L 16 5  L 16 15  Z " fill-rule="nonzero" fill="#ffffff" stroke="none" transform="matrix(1 0 0 1 2043 3409 )" />
  </g>
</svg>