<?xml version="1.0" encoding="utf-8"?>
<svg version="1.1" xmlns:xlink="http://www.w3.org/1999/xlink" width="35px" height="30px" xmlns="http://www.w3.org/2000/svg">
  <g transform="matrix(1 0 0 1 -2161 -3411 )">
    <path d="M 24.7417462624585 19.82421875  C 24.8585444352159 19.70703125  24.9169435215947 19.5572916666665  24.9169435215947 19.375  L 24.9169435215947 15.625  C 24.9169435215947 15.4427083333335  24.8585444352159 15.29296875  24.7417462624585 15.17578125  C 24.624948089701 15.05859375  24.4757059800665 15  24.2940199335549 15  L 19.9335548172758 15  L 19.9335548172758 10.625  C 19.9335548172758 10.4427083333335  19.875155730897 10.29296875  19.7583575581396 10.17578125  C 19.6415593853821 10.05859375  19.4923172757475 10  19.3106312292359 10  L 15.5730897009967 10  C 15.3914036544851 10  15.2421615448505 10.05859375  15.125363372093 10.17578125  C 15.0085651993356 10.29296875  14.9501661129568 10.4427083333335  14.9501661129568 10.625  L 14.9501661129568 15  L 10.5897009966777 15  C 10.4080149501661 15  10.2587728405315 15.05859375  10.1419746677741 15.17578125  C 10.0251764950166 15.29296875  9.96677740863788 15.4427083333335  9.96677740863788 15.625  L 9.96677740863788 19.375  C 9.96677740863788 19.5572916666665  10.0251764950166 19.70703125  10.1419746677741 19.82421875  C 10.2587728405315 19.94140625  10.4080149501661 20  10.5897009966777 20  L 14.9501661129568 20  L 14.9501661129568 24.375  C 14.9501661129568 24.5572916666665  15.0085651993356 24.70703125  15.125363372093 24.82421875  C 15.2421615448505 24.94140625  15.3914036544851 25  15.5730897009967 25  L 19.3106312292359 25  C 19.4923172757475 25  19.6415593853821 24.94140625  19.7583575581396 24.82421875  C 19.875155730897 24.70703125  19.9335548172758 24.5572916666665  19.9335548172758 24.375  L 19.9335548172758 20  L 24.2940199335549 20  C 24.4757059800665 20  24.624948089701 19.94140625  24.7417462624585 19.82421875  Z M 12.4584717607974 2.5  L 12.4584717607974 5  L 22.4252491694352 5  L 22.4252491694352 2.5  L 12.4584717607974 2.5  Z M 4.3604651162791 5  L 5 5  L 5 30  L 4.3604651162791 30  C 3.16652823920265 30  2.14129983388705 29.5703125  1.28477990033224 28.7109375  C 0.428259966777432 27.8515625  0 26.8229166666665  0 25.625  L 0 9.375  C 0 8.17708333333348  0.428259966777432 7.1484375  1.28477990033224 6.2890625  C 2.14129983388705 5.4296875  3.16652823920265 5  4.3604651162791 5  Z M 24.9169435215947 5  L 28 5  L 28 30  L 7 30  L 7 5  L 9.96677740863788 5  L 9.96677740863788 1.875  C 9.96677740863788 1.35416666666652  10.1484634551495 0.911458333333485  10.5118355481728 0.546875  C 10.875207641196 0.182291666666515  11.3164451827242 0  11.8355481727575 0  L 23.0481727574751 0  C 23.5672757475083 0  24.0085132890366 0.182291666666515  24.3718853820598 0.546875  C 24.7352574750831 0.911458333333485  24.9169435215947 1.35416666666652  24.9169435215947 1.875  L 24.9169435215947 5  Z M 33.5989410299003 6.2890625  C 34.4554609634552 7.1484375  34.8837209302326 8.17708333333348  34.8837209302326 9.375  L 34.8837209302326 25.625  C 34.8837209302326 26.8229166666665  34.4554609634552 27.8515625  33.5989410299003 28.7109375  C 32.7424210963455 29.5703125  31.7171926910299 30  30.5232558139535 30  L 30 30  L 30 5  L 30.5232558139535 5  C 31.7171926910299 5  32.7424210963455 5.4296875  33.5989410299003 6.2890625  Z " fill-rule="nonzero" fill="#ffffff" stroke="none" transform="matrix(1 0 0 1 2161 3411 )" />
  </g>
</svg>