<?xml version="1.0" encoding="utf-8"?>
<svg version="1.1" xmlns:xlink="http://www.w3.org/1999/xlink" width="40px" height="40px" xmlns="http://www.w3.org/2000/svg">
  <g transform="matrix(1 0 0 1 -3556 -1682 )">
    <path d="M 22.6822916666667 27.3177083333333  C 22.8385416666667 27.4739583333333  22.9166666666667 27.6736111111111  22.9166666666667 27.9166666666667  L 22.9166666666667 32.0833333333333  C 22.9166666666667 32.3263888888889  22.8385416666667 32.5260416666667  22.6822916666667 32.6822916666667  C 22.5260416666667 32.8385416666667  22.3263888888889 32.9166666666667  22.0833333333333 32.9166666666667  L 17.9166666666667 32.9166666666667  C 17.6736111111111 32.9166666666667  17.4739583333333 32.8385416666667  17.3177083333333 32.6822916666667  C 17.1614583333333 32.5260416666667  17.0833333333333 32.3263888888889  17.0833333333333 32.0833333333333  L 17.0833333333333 27.9166666666667  C 17.0833333333333 27.6736111111111  17.1614583333333 27.4739583333333  17.3177083333333 27.3177083333333  C 17.4739583333333 27.1614583333333  17.6736111111111 27.0833333333333  17.9166666666667 27.0833333333333  L 22.0833333333333 27.0833333333333  C 22.3263888888889 27.0833333333333  22.5260416666667 27.1614583333333  22.6822916666667 27.3177083333333  Z M 26.7317708333333 9.4140625  C 28.6328125 10.9678819444443  29.5833333333333 12.8298611111111  29.5833333333333 15  C 29.5833333333333 15.8680555555557  29.453125 16.6493055555557  29.1927083333333 17.34375  C 28.9322916666667 18.0381944444443  28.5373263888889 18.6371527777778  28.0078125 19.140625  C 27.4782986111111 19.6440972222222  27.0269097222222 20.0260416666667  26.6536458333333 20.2864583333333  C 26.2803819444443 20.546875  25.7638888888889 20.859375  25.1041666666667 21.2239583333333  C 24.5486111111111 21.5364583333333  24.1449652777778 21.7795138888889  23.8932291666667 21.953125  C 23.6414930555557 22.1267361111111  23.4157986111111 22.3350694444443  23.2161458333333 22.578125  C 23.0164930555557 22.8211805555557  22.9166666666667 23.0729166666667  22.9166666666667 23.3333333333333  L 22.9166666666667 24.1666666666667  C 22.9166666666667 24.4097222222222  22.8385416666667 24.609375  22.6822916666667 24.765625  C 22.5260416666667 24.921875  22.3263888888889 25  22.0833333333333 25  L 17.9166666666667 25  C 17.6736111111111 25  17.4739583333333 24.921875  17.3177083333333 24.765625  C 17.1614583333333 24.609375  17.0833333333333 24.4097222222222  17.0833333333333 24.1666666666667  L 17.0833333333333 22.3958333333333  C 17.0833333333333 21.7881944444443  17.1744791666667 21.2282986111111  17.3567708333333 20.7161458333333  C 17.5390625 20.2039930555557  17.7473958333333 19.7916666666667  17.9817708333333 19.4791666666667  C 18.2161458333333 19.1666666666667  18.5546875 18.8585069444443  18.9973958333333 18.5546875  C 19.4401041666667 18.2508680555557  19.7960069444443 18.0295138888889  20.0651041666667 17.890625  C 20.3342013888889 17.7517361111111  20.7204861111111 17.5694444444443  21.2239583333333 17.34375  C 22.1440972222222 16.9097222222222  22.7951388888889 16.5364583333333  23.1770833333333 16.2239583333333  C 23.5590277777778 15.9114583333333  23.75 15.4861111111111  23.75 14.9479166666667  C 23.75 14.21875  23.3723958333333 13.5980902777778  22.6171875 13.0859375  C 21.8619791666667 12.5737847222222  21.0329861111111 12.3177083333333  20.1302083333333 12.3177083333333  C 19.1579861111111 12.3177083333333  18.3333333333333 12.5520833333333  17.65625 13.0208333333333  C 17.1527777777778 13.3680555555557  16.4583333333333 14.0885416666667  15.5729166666667 15.1822916666667  C 15.4166666666667 15.390625  15.1996527777778 15.4947916666667  14.921875 15.4947916666667  C 14.7309027777778 15.4947916666667  14.5659722222222 15.4427083333333  14.4270833333333 15.3385416666667  L 11.6145833333333 13.203125  C 11.4409722222222 13.0815972222222  11.3368055555557 12.9079861111111  11.3020833333333 12.6822916666667  C 11.2673611111111 12.4565972222222  11.3107638888889 12.2569444444443  11.4322916666667 12.0833333333333  C 13.5503472222222 8.75  16.5798611111111 7.08333333333326  20.5208333333333 7.08333333333326  C 22.7604166666667 7.08333333333326  24.8307291666667 7.86024305555566  26.7317708333333 9.4140625  Z M 26.4713541666667 4.66145833333326  C 24.4140625 3.77604166666674  22.2569444444443 3.33333333333326  20 3.33333333333326  C 17.7430555555557 3.33333333333326  15.5859375 3.77604166666674  13.5286458333333 4.66145833333326  C 11.4713541666667 5.546875  9.70052083333326 6.73177083333326  8.21614583333326 8.21614583333326  C 6.73177083333326 9.70052083333326  5.546875 11.4713541666667  4.66145833333326 13.5286458333333  C 3.77604166666674 15.5859375  3.33333333333326 17.7430555555557  3.33333333333326 20  C 3.33333333333326 22.2569444444443  3.77604166666674 24.4140625  4.66145833333326 26.4713541666667  C 5.546875 28.5286458333333  6.73177083333326 30.2994791666667  8.21614583333326 31.7838541666667  C 9.70052083333326 33.2682291666667  11.4713541666667 34.453125  13.5286458333333 35.3385416666667  C 15.5859375 36.2239583333333  17.7430555555557 36.6666666666667  20 36.6666666666667  C 22.2569444444443 36.6666666666667  24.4140625 36.2239583333333  26.4713541666667 35.3385416666667  C 28.5286458333333 34.453125  30.2994791666667 33.2682291666667  31.7838541666667 31.7838541666667  C 33.2682291666667 30.2994791666667  34.453125 28.5286458333333  35.3385416666667 26.4713541666667  C 36.2239583333333 24.4140625  36.6666666666667 22.2569444444443  36.6666666666667 20  C 36.6666666666667 17.7430555555557  36.2239583333333 15.5859375  35.3385416666667 13.5286458333333  C 34.453125 11.4713541666667  33.2682291666667 9.70052083333326  31.7838541666667 8.21614583333326  C 30.2994791666667 6.73177083333326  28.5286458333333 5.546875  26.4713541666667 4.66145833333326  Z M 37.3177083333333 9.9609375  C 39.1059027777778 13.0251736111111  40 16.3715277777778  40 20  C 40 23.6284722222222  39.1059027777778 26.9748263888889  37.3177083333333 30.0390625  C 35.5295138888889 33.1032986111111  33.1032986111111 35.5295138888889  30.0390625 37.3177083333333  C 26.9748263888889 39.1059027777778  23.6284722222222 40  20 40  C 16.3715277777778 40  13.0251736111111 39.1059027777778  9.9609375 37.3177083333333  C 6.89670138888891 35.5295138888889  4.47048611111109 33.1032986111111  2.68229166666674 30.0390625  C 0.894097222222172 26.9748263888889  0 23.6284722222222  0 20  C 0 16.3715277777778  0.894097222222172 13.0251736111111  2.68229166666674 9.9609375  C 4.47048611111109 6.89670138888891  6.89670138888891 4.47048611111109  9.9609375 2.68229166666674  C 13.0251736111111 0.894097222222172  16.3715277777778 0  20 0  C 23.6284722222222 0  26.9748263888889 0.894097222222172  30.0390625 2.68229166666674  C 33.1032986111111 4.47048611111109  35.5295138888889 6.89670138888891  37.3177083333333 9.9609375  Z " fill-rule="nonzero" fill="#333333" stroke="none" transform="matrix(1 0 0 1 3556 1682 )" />
  </g>
</svg>