<?xml version="1.0" encoding="utf-8"?>
<svg version="1.1" xmlns:xlink="http://www.w3.org/1999/xlink" width="19px" height="20px" xmlns="http://www.w3.org/2000/svg">
  <g transform="matrix(1 0 0 1 -2400 -17 )">
    <path d="M 11.65234375 12.265625  C 12.6533453525641 11.2119391025641  13.1538461538461 9.94391025641026  13.1538461538461 8.46153846153846  C 13.1538461538461 6.97916666666666  12.6533453525641 5.71113782051282  11.65234375 4.65745192307693  C 10.6513421474359 3.60376602564103  9.44671474358972 3.07692307692307  8.03846153846155 3.07692307692307  C 6.63020833333337 3.07692307692307  5.4255809294873 3.60376602564103  4.42457932692309 4.65745192307693  C 3.42357772435901 5.71113782051282  2.92307692307691 6.97916666666666  2.92307692307691 8.46153846153846  C 2.92307692307691 9.94391025641026  3.42357772435901 11.2119391025641  4.42457932692309 12.265625  C 5.4255809294873 13.3193108974359  6.63020833333337 13.8461538461538  8.03846153846155 13.8461538461538  C 9.44671474358972 13.8461538461538  10.6513421474359 13.3193108974359  11.65234375 12.265625  Z M 18.5775240384615 17.3798076923077  C 18.8591746794873 17.6762820512821  19 18.036858974359  19 18.4615384615385  C 19 18.8782051282051  18.8553685897436 19.2387820512821  18.5661057692308 19.5432692307692  C 18.276842948718 19.8477564102564  17.9342948717948 20  17.5384615384615 20  C 17.1274038461539 20  16.7848557692308 19.8477564102564  16.5108173076924 19.5432692307692  L 12.5943509615385 15.4326923076923  C 11.2317708333334 16.4262820512821  9.71314102564099 16.9230769230769  8.03846153846155 16.9230769230769  C 6.9499198717948 16.9230769230769  5.90895432692309 16.7007211538462  4.91556490384608 16.2560096153846  C 3.92217548076917 15.8112980769231  3.06580528846155 15.2103365384615  2.34645432692309 14.453125  C 1.62710336538464 13.6959134615385  1.05618990384608 12.7944711538462  0.633713942307622 11.7487980769231  C 0.21123798076917 10.703125  0 9.60737179487179  0 8.46153846153846  C 0 7.31570512820512  0.21123798076917 6.21995192307692  0.633713942307622 5.17427884615385  C 1.05618990384608 4.12860576923077  1.62710336538464 3.22716346153846  2.34645432692309 2.46995192307692  C 3.06580528846155 1.71274038461539  3.92217548076917 1.11177884615385  4.91556490384608 0.66706730769231  C 5.90895432692309 0.22235576923077  6.9499198717948 0  8.03846153846155 0  C 9.12700320512818 0  10.16796875 0.22235576923077  11.1613581730769 0.66706730769231  C 12.1547475961539 1.11177884615385  13.0111177884615 1.71274038461539  13.73046875 2.46995192307692  C 14.4498197115385 3.22716346153846  15.0207331730769 4.12860576923077  15.4432091346154 5.17427884615385  C 15.8656850961539 6.21995192307692  16.0769230769231 7.31570512820512  16.0769230769231 8.46153846153846  C 16.0769230769231 10.224358974359  15.604967948718 11.8229166666667  14.6610576923076 13.2572115384615  L 18.5775240384615 17.3798076923077  Z " fill-rule="nonzero" fill="#666666" stroke="none" transform="matrix(1 0 0 1 2400 17 )" />
  </g>
</svg>