<?xml version="1.0" encoding="utf-8"?>
<svg version="1.1" xmlns:xlink="http://www.w3.org/1999/xlink" width="13px" height="13px" xmlns="http://www.w3.org/2000/svg">
  <g transform="matrix(1 0 0 1 -1871 -97 )">
    <path d="M 12.6936026936027 9.71717171717148  C 12.8978675645343 9.92143658810335  13 10.1694725028058  13 10.4612794612797  C 13 10.753086419753  12.8978675645343 11.0011223344558  12.6936026936027 11.2053872053871  L 11.2053872053872 12.6936026936028  C 11.0011223344557 12.8978675645341  10.7530864197531 13  10.4612794612794 13  C 10.1694725028058 13  9.92143658810326 12.8978675645341  9.71717171717171 12.6936026936028  L 6.5 9.47643097643106  L 3.28282828282829 12.6936026936028  C 3.07856341189674 12.8978675645341  2.8305274971942 13  2.53872053872055 13  C 2.24691358024694 13  1.99887766554431 12.8978675645341  1.79461279461282 12.6936026936028  L 0.306397306397315 11.2053872053871  C 0.102132435465734 11.0011223344558  0 10.753086419753  0 10.4612794612797  C 0 10.1694725028058  0.102132435465734 9.92143658810335  0.306397306397315 9.71717171717148  L 3.523569023569 6.5  L 0.306397306397315 3.28282828282829  C 0.102132435465734 3.07856341189665  0 2.83052749719423  0 2.53872053872055  C 0 2.246913580247  0.102132435465734 1.99887766554446  0.306397306397315 1.7946127946127  L 1.79461279461282 0.30639730639723  C 1.99887766554431 0.102132435465705  2.24691358024694 0  2.53872053872055 0  C 2.8305274971942 0  3.07856341189674 0.102132435465705  3.28282828282829 0.30639730639723  L 6.5 3.52356902356894  L 9.71717171717171 0.30639730639723  C 9.92143658810326 0.102132435465705  10.1694725028058 0  10.4612794612794 0  C 10.7530864197531 0  11.0011223344557 0.102132435465705  11.2053872053872 0.30639730639723  L 12.6936026936027 1.7946127946127  C 12.8978675645343 1.99887766554446  13 2.246913580247  13 2.53872053872055  C 13 2.83052749719423  12.8978675645343 3.07856341189665  12.6936026936027 3.28282828282829  L 9.476430976431 6.5  L 12.6936026936027 9.71717171717148  Z " fill-rule="nonzero" fill="#990099" stroke="none" transform="matrix(1 0 0 1 1871 97 )" />
  </g>
</svg>