<?xml version="1.0" encoding="utf-8"?>
<svg version="1.1" xmlns:xlink="http://www.w3.org/1999/xlink" width="13px" height="13px" xmlns="http://www.w3.org/2000/svg">
  <g transform="matrix(1 0 0 1 -1967 -97 )">
    <path d="M 12.6936026936027 9.71717171717148  C 12.8978675645342 9.92143658810346  13 10.1694725028058  13 10.4612794612798  C 13 10.753086419753  12.8978675645342 11.0011223344559  12.6936026936027 11.2053872053872  L 11.2053872053872 12.6936026936027  C 11.0011223344557 12.897867564534  10.7530864197531 13  10.4612794612794 13  C 10.1694725028058 13  9.92143658810329 12.897867564534  9.71717171717177 12.6936026936027  L 6.5 9.47643097643106  L 3.28282828282823 12.6936026936027  C 3.07856341189671 12.897867564534  2.83052749719417 13  2.53872053872055 13  C 2.24691358024688 13  1.99887766554434 12.897867564534  1.79461279461282 12.6936026936027  L 0.306397306397344 11.2053872053872  C 0.102132435465762 11.0011223344559  0 10.753086419753  0 10.4612794612798  C 0 10.1694725028058  0.102132435465762 9.92143658810346  0.306397306397344 9.71717171717148  L 3.523569023569 6.5  L 0.306397306397344 3.2828282828284  C 0.102132435465762 3.07856341189654  0 2.83052749719423  0 2.53872053872044  C 0 2.246913580247  0.102132435465762 1.99887766554434  0.306397306397344 1.7946127946127  L 1.79461279461282 0.306397306397344  C 1.99887766554434 0.102132435465819  2.24691358024688 0  2.53872053872055 0  C 2.83052749719417 0  3.07856341189671 0.102132435465819  3.28282828282823 0.306397306397344  L 6.5 3.52356902356894  L 9.71717171717177 0.306397306397344  C 9.92143658810329 0.102132435465819  10.1694725028058 0  10.4612794612794 0  C 10.7530864197531 0  11.0011223344557 0.102132435465819  11.2053872053872 0.306397306397344  L 12.6936026936027 1.7946127946127  C 12.8978675645342 1.99887766554434  13 2.246913580247  13 2.53872053872044  C 13 2.83052749719423  12.8978675645342 3.07856341189654  12.6936026936027 3.2828282828284  L 9.476430976431 6.5  L 12.6936026936027 9.71717171717148  Z " fill-rule="nonzero" fill="#0033cc" stroke="none" transform="matrix(1 0 0 1 1967 97 )" />
  </g>
</svg>