<?xml version="1.0" encoding="utf-8"?>
<svg version="1.1" xmlns:xlink="http://www.w3.org/1999/xlink" width="63px" height="50px" xmlns="http://www.w3.org/2000/svg">
  <g transform="matrix(1 0 0 1 -3507 -3565 )">
    <path d="M 21.3503904071388 39.9965564738295  C 22.2915504740658 39.6866391184576  23.0177542294107 39.1414141414143  23.5290016731735 38.3608815426996  C 24.0170105967652 37.580348943985  24.1448224577059 36.7883379247014  23.9124372559954 35.984848484848  C 23.6800520542852 35.1813590449956  23.157185350437 34.6074380165292  22.3438371444506 34.2630853994488  C 21.5537274586354 33.941689623508  20.7055214723925 33.9302112029382  19.7992191857222 34.2286501377412  C 18.8929168990519 34.5270890725433  18.1957612939209 35.0550964187332  17.707752370329 35.8126721763083  C 17.1965049265664 36.593204775023  17.0454545454545 37.3794765840221  17.2546012269938 38.1714876033057  C 17.4637479085332 38.9634986225892  17.9633760922104 39.543158861341  18.7534857780256 39.9104683195592  C 19.5435954638408 40.2777777777774  20.4092303402119 40.3064738292014  21.3503904071388 39.9965564738295  Z M 26.0387618516452 34.8312672176307  C 26.3873396542108 34.7050045913684  26.6429633760922 34.4926538108357  26.8056330172894 34.1942148760327  C 26.9915411786578 33.8957759412306  27.032208588957 33.5915977961431  26.9276352481875 33.2816804407712  C 26.8230619074177 32.9717630853993  26.6197248559213 32.7594123048666  26.3176240936978 32.6446280991731  C 25.9922848113033 32.5298438934806  25.661135898866 32.535583103765  25.3241773563859 32.6618457300274  C 24.9872188139059 32.7881083562897  24.7374047220674 33.0004591368224  24.5747350808701 33.2988980716254  C 24.1796802379624 34.010560146924  24.3307306190741 34.5270890725433  25.0278862242053 34.848484848485  C 25.3532255065998 34.9632690541785  25.6901840490798 34.9575298438931  26.0387618516452 34.8312672176307  Z M 32.7837423312883 31.3188705234161  C 33.8875720394126 33.3964646464647  33.9166201896264 35.5831037649223  32.8708867819298 37.878787878788  C 31.8251533742332 40.2203856749311  29.9893102807214 41.9421487603304  27.3633575013944 43.0440771349859  C 24.7374047220674 44.1460055096422  22.1346904629113 44.2837465564735  19.5552147239264 43.4573002754823  C 17.0686930656257 42.6767676767677  15.3548522030117 41.2247474747473  14.4136921360848 39.1012396694214  C 13.4725320691578 36.9777318640954  13.5480572597137 34.8255280073463  14.6402677077524 32.6446280991731  C 15.7324781557911 30.5096418732783  17.492796058747 28.9141414141413  19.9212214166203 27.8581267217633  C 22.3496467744933 26.8021120293852  24.7955010224948 26.5840220385671  27.2587841606246 27.2038567493109  C 29.8382598996095 27.8696051423321  31.6799126231642 29.2412764003675  32.7837423312883 31.3188705234161  Z M 39.127858337981 41.477272727273  C 42.5323015430376 38.7568870523419  44.0718535043688 35.7208448117535  43.7465142219744 32.3691460055097  C 43.5373675404351 30.1652892561988  42.503253392824 28.2139577594126  40.6441717791411 26.515151515152  C 38.7850901654583 24.8163452708905  36.3624744376277 23.5651974288339  33.3763245956497 22.7617079889806  C 30.3901747536718 21.9582185491272  27.2006878601971 21.7171717171714  23.8078639152259 22.0385674931131  C 18.6256739170849 22.5665748393021  14.3323573154862 24.1907713498622  10.9279141104294 26.9111570247933  C 7.52347090537273 29.6315426997244  5.98391894404153 32.6675849403118  6.30925822643621 36.0192837465565  C 6.51840490797554 38.2231404958675  7.55251905558657 40.1744719926537  9.41160066926932 41.8732782369143  C 11.2706822829523 43.5720844811758  13.6932980107827 44.8232323232323  16.6794478527606 45.6267217630857  C 19.6655976947388 46.4302112029382  22.8550845882135 46.671258034894  26.2479085331845 46.3498622589532  C 31.4300985313255 45.8218549127641  35.7234151329244 44.1976584022041  39.127858337981 41.477272727273  Z M 53.29754601227 28.4951790633613  C 54.0876556980852 29.7004132231405  54.4827105409927 31.0376492194673  54.4827105409927 32.5068870523419  C 54.4827105409927 34.0679522497703  54.0527979178287 35.6691919191917  53.1929726715002 37.310606060606  C 52.333147425172 38.9520202020203  51.0666480758505 40.5245638200186  49.3934746235359 42.0282369146007  C 47.7203011712213 43.5319100091829  45.7624558468117 44.8806244260786  43.5199386503068 46.0743801652889  C 41.2774214538017 47.2681359044991  38.6514686744749 48.2208448117535  35.6420803123258 48.9325068870521  C 32.6326919501767 49.6441689623507  29.4896820970441 50  26.213050752928 50  C 22.9364194088121 50  19.7411228852948 49.6154729109276  16.6271611823759 48.8464187327827  C 13.5131994794572 48.0773645546369  10.71876742889 47.0098714416899  8.2438650306749 45.643939393939  C 5.76896263245953 44.278007346189  3.77625952779317 42.54476584022  2.26575571667604 40.4442148760327  C 0.75525190555868 38.3436639118454  0 36.0537190082641  0 33.5743801652889  C 0 30.9343434343436  0.807538575943454 28.1221303948578  2.42261572783036 25.1377410468322  C 4.0376928797175 22.1533516988065  6.33249674660715 19.1919191919196  9.30702732849977 16.2534435261705  C 13.2343372374048 12.3737373737376  17.2023145566091 9.66483011937544  21.2109592861127 8.1267217630857  C 25.2196040156164 6.58861340679505  28.0837516266963 6.66896235078093  29.803402119353 8.36776859504153  C 31.3139059304704 9.83700642791518  31.5462911321806 12.2359963269055  30.500557724484 15.5647382920106  C 30.4076036438 15.8861340679523  30.3959843837144 16.1157024793392  30.4656999442275 16.2534435261705  C 30.5354155047407 16.3911845730026  30.6516081055959 16.4715335169876  30.8142777467931 16.4944903581263  C 30.9769473879903 16.517447199265  31.1454266592305 16.5117079889806  31.319715560513 16.477272727273  C 31.4940044617958 16.4428374655645  31.6508644729504 16.4026629935724  31.7902955939767 16.3567493112951  L 31.999442275516 16.287878787879  C 35.2295965792898 14.9334251606979  38.0879345603271 14.2561983471078  40.574456218628 14.2561983471078  C 43.0609778769287 14.2561983471078  44.8387246700131 14.9563820018366  45.9076965978807 16.3567493112951  C 46.9534300055773 17.80303030303  46.9534300055773 19.846189164371  45.9076965978807 22.4862258953171  C 45.8612195575386 22.7846648301193  45.8089328871538 23.0142332415062  45.7508365867261 23.1749311294761  C 45.6927402862987 23.335629017447  45.7450269566834 23.4791092745636  45.9076965978807 23.6053719008269  C 46.0703662390779 23.7316345270892  46.2097973601042 23.8177226813586  46.3259899609593 23.863636363636  C 46.4421825618144 23.9095500459134  46.6397099832682 23.9784205693295  46.9185722253208 24.0702479338843  C 48.2431678750697 24.4834710743799  49.439951663878 25.0229568411387  50.5089235917458 25.6887052341599  C 51.5778955196133 26.3544536271811  52.5074363264548 27.2899449035813  53.29754601227 28.4951790633613  Z M 48.382598996096 8.76377410468285  C 49.7536716861871 9.18847566574823  50.9272169548244 9.94031221303976  51.9032348020078 11.0192837465565  C 52.8792526491914 12.0982552800733  53.512502323852 13.3436639118454  53.8029838259899 14.7555096418737  C 54.0934653281279 16.1673553719011  54.0179401375719 17.5160697887968  53.5764082543224 18.8016528925618  C 53.390500092954 19.3296602387509  53.0477319204313 19.7199265381087  52.548103736754 19.9724517906334  C 52.0484755530767 20.224977043159  51.5314184792712 20.2708907254364  50.9969325153374 20.1101928374655  C 50.4624465514037 19.926538108356  50.067391708496 19.587924701561  49.8117679866145 19.0943526170795  C 49.5561442647331 18.6007805325989  49.5096672243913 18.0899908172632  49.6723368655885 17.5619834710742  C 50.1371072690092 16.1157024793392  49.8582450269566 14.8415977961431  48.8357501394312 13.7396694214876  C 47.8132552519055 12.6377410468322  46.5699944227551 12.2359963269055  45.1059676519799 12.5344352617076  C 44.5482431678752 12.6492194674011  44.0253764640267 12.5573921028463  43.5373675404351 12.2589531680442  C 43.0493586168432 11.9605142332412  42.7588771147052 11.5358126721767  42.6659230340213 10.984848484848  C 42.5497304331661 10.4338842975203  42.6426845138501 9.92309458218551  42.9447852760736 9.45247933884275  C 43.2468860382971 8.9818640955009  43.6767986614611 8.68916437098233  44.2345231455661 8.57438016528886  C 45.6288343558283 8.27594123048675  47.0115263060047 8.33907254361839  48.382598996096 8.76377410468285  Z M 50.9620747350809 0.774793388429316  C 53.7739356757761 1.63567493112987  56.1907417735638 3.17952249770406  58.212493028444 5.4063360881546  C 60.234244283324 7.61019283746555  61.5414110429447 10.1641414141413  62.1339933073061 13.068181818182  C 62.7265755716676 15.9722222222226  62.569715560513 18.7442607897156  61.6634132738427 21.3842975206608  C 61.4542665923034 22.0041322314046  61.0592117493959 22.4632690541785  60.4782487451198 22.7617079889806  C 59.8972857408439 23.0601469237836  59.2930842163971 23.106060606061  58.6656441717791 22.8994490358127  C 58.0382041271612 22.6928374655645  57.5734337237404 22.3025711662076  57.2713329615169 21.7286501377412  C 56.9692321992936 21.1547291092747  56.911135898866 20.5578512396696  57.0970440602343 19.9380165289258  C 57.7477226250232 18.0555555555557  57.8639152258784 16.0812672176307  57.4456218627997 14.015151515152  C 57.0273284997211 11.9490358126723  56.0977876928798 10.1354453627182  54.6569994422755 8.57438016528886  C 53.2162111916714 6.99035812672173  51.4965606990147 5.8941689623507  49.4980479643057 5.28581267217669  C 47.4995352295966 4.67745638200176  45.489403234802 4.57988980716254  43.4676519799218 4.99311294765812  C 42.8169734151329 5.13085399449028  42.2127718906861 5.02180899908217  41.6550474065812 4.66597796143287  C 41.0973229224762 4.31014692378358  40.7487451199108 3.81083562901767  40.6093139988845 3.16804407713516  C 40.4698828778583 2.52525252525265  40.5802658486707 1.93411386593198  40.9404629113219 1.39462809917313  C 41.3006599739729 0.855142332415198  41.8060977876928 0.51652892562015  42.4567763524819 0.378787878787989  C 45.3151143335192 -0.218089990817134  48.1502137943855 -0.0860881542703282  50.9620747350809 0.774793388429316  Z " fill-rule="nonzero" fill="#006666" stroke="none" transform="matrix(1 0 0 1 3507 3565 )" />
  </g>
</svg>