<?xml version="1.0" encoding="utf-8"?>
<svg version="1.1" xmlns:xlink="http://www.w3.org/1999/xlink" width="35px" height="35px" xmlns="http://www.w3.org/2000/svg">
  <g transform="matrix(1 0 0 1 -145 -1247 )">
    <path d="M 34.4765929778934 14.4278283485046  L 31.3361508452536 17.5  L 34.4765929778934 20.5721716514954  C 34.9317295188557 20.9969657563936  35.0834416991764 21.5279583875163  34.9317295188557 22.1651495448635  C 34.7496749024707 22.7871694841786  34.3552232336368 23.1740355439965  33.7483745123537 23.3257477243173  L 29.4700910273082 24.4180754226268  L 30.6762028608583 28.6508452535761  C 30.8582574772432 29.2728651928912  30.7141309059385 29.8038578240139  30.2438231469441 30.2438231469441  C 29.8038578240139 30.7141309059385  29.2728651928912 30.8582574772432  28.6508452535761 30.6762028608583  L 24.4180754226268 29.4700910273082  L 23.3257477243173 33.7483745123537  C 23.1740355439965 34.3552232336368  22.7871694841786 34.7496749024707  22.1651495448635 34.9317295188557  C 21.9830949284785 34.9620719549198  21.8389683571738 34.9772431729519  21.7327698309493 34.9772431729519  C 21.2624620719549 34.9772431729519  20.875596012137 34.8103597745991  20.5721716514954 34.4765929778934  L 17.5 31.3361508452536  L 14.4278283485046 34.4765929778934  C 14.0030342436064 34.9317295188557  13.4720416124837 35.0834416991764  12.8348504551365 34.9317295188557  C 12.2128305158214 34.7648461205028  11.8259644560035 34.3703944516688  11.6742522756827 33.7483745123537  L 10.5819245773732 29.4700910273082  L 6.34915474642393 30.6762028608583  C 5.7271348071088 30.8582574772432  5.19614217598613 30.7141309059385  4.75617685305592 30.2438231469441  C 4.28586909406155 29.8038578240139  4.14174252275683 29.2728651928912  4.32379713914174 28.6508452535761  L 5.52990897269181 24.4180754226268  L 1.25162548764629 23.3257477243173  C 0.644776766363242 23.1740355439965  0.250325097529259 22.7871694841786  0.0682704811443433 22.1651495448635  C -0.0834416991764196 21.5279583875163  0.0682704811443433 20.9969657563936  0.523407022106632 20.5721716514954  L 3.66384915474642 17.5  L 0.523407022106632 14.4278283485046  C 0.0682704811443433 14.0030342436064  -0.0834416991764196 13.4720416124837  0.0682704811443433 12.8348504551365  C 0.250325097529259 12.2128305158214  0.644776766363242 11.8259644560035  1.25162548764629 11.6742522756827  L 5.52990897269181 10.5819245773732  L 4.32379713914174 6.34915474642393  C 4.14174252275683 5.72713480710879  4.28586909406155 5.19614217598613  4.75617685305592 4.75617685305592  C 5.19614217598613 4.28586909406155  5.7271348071088 4.14174252275683  6.34915474642393 4.32379713914174  L 10.5819245773732 5.52990897269181  L 11.6742522756827 1.25162548764629  C 11.8259644560035 0.629605548331162  12.2128305158214 0.242739488513218  12.8348504551365 0.0910273081924562  C 13.4568703944517 -0.0910273081924562  13.9878630255743 0.0530992631122668  14.4278283485046 0.523407022106633  L 17.5 3.68660598179454  L 20.5721716514954 0.523407022106633  C 21.0121369744257 0.0682704811443441  21.5431296055483 -0.0758560901603866  22.1651495448635 0.0910273081924562  C 22.7871694841786 0.242739488513218  23.1740355439965 0.629605548331162  23.3257477243173 1.25162548764629  L 24.4180754226268 5.52990897269181  L 28.6508452535761 4.32379713914174  C 29.2728651928912 4.14174252275683  29.8038578240139 4.28586909406155  30.2438231469441 4.75617685305592  C 30.7141309059385 5.19614217598613  30.8582574772432 5.72713480710879  30.6762028608583 6.34915474642393  L 29.4700910273082 10.5819245773732  L 33.7483745123537 11.6742522756827  C 34.3552232336368 11.8259644560035  34.7496749024707 12.2128305158214  34.9317295188557 12.8348504551365  C 35.0834416991764 13.4720416124837  34.9317295188557 14.0030342436064  34.4765929778934 14.4278283485046  Z " fill-rule="nonzero" fill="#4c4c4c" stroke="none" transform="matrix(1 0 0 1 145 1247 )" />
  </g>
</svg>