<?xml version="1.0" encoding="utf-8"?>
<svg version="1.1" xmlns:xlink="http://www.w3.org/1999/xlink" width="25px" height="35px" xmlns="http://www.w3.org/2000/svg">
  <g transform="matrix(1 0 0 1 -151 -1327 )">
    <path d="M 16.9189453125 15.791015625  C 18.1396484375 14.6516927083333  18.75 13.2769097222222  18.75 11.6666666666667  C 18.75 10.0564236111111  18.1396484375 8.681640625  16.9189453125 7.54231770833333  C 15.6982421875 6.40299479166667  14.2252604166667 5.83333333333333  12.5 5.83333333333333  C 10.7747395833333 5.83333333333333  9.3017578125 6.40299479166667  8.0810546875 7.54231770833333  C 6.8603515625 8.681640625  6.25 10.0564236111111  6.25 11.6666666666667  C 6.25 13.2769097222222  6.8603515625 14.6516927083333  8.0810546875 15.791015625  C 9.3017578125 16.9303385416667  10.7747395833333 17.5  12.5 17.5  C 14.2252604166667 17.5  15.6982421875 16.9303385416667  16.9189453125 15.791015625  Z M 21.337890625 3.41796875  C 23.779296875 5.69661458333333  25 8.44618055555555  25 11.6666666666667  C 25 13.3224826388889  24.7314453125 14.6820746527778  24.1943359375 15.7454427083333  L 15.3076171875 33.3821614583333  C 15.0472005208333 33.8834635416667  14.66064453125 34.2784288194444  14.14794921875 34.5670572916667  C 13.63525390625 34.8556857638889  13.0859375 35  12.5 35  C 11.9140625 35  11.36474609375 34.8556857638889  10.85205078125 34.5670572916667  C 10.33935546875 34.2784288194444  9.9609375 33.8834635416667  9.716796875 33.3821614583333  L 0.8056640625 15.7454427083333  C 0.2685546875 14.6820746527778  0 13.3224826388889  0 11.6666666666667  C 0 8.44618055555555  1.220703125 5.69661458333333  3.662109375 3.41796875  C 6.103515625 1.13932291666667  9.04947916666667 0  12.5 0  C 15.9505208333333 0  18.896484375 1.13932291666667  21.337890625 3.41796875  Z " fill-rule="nonzero" fill="#4c4c4c" stroke="none" transform="matrix(1 0 0 1 151 1327 )" />
  </g>
</svg>