<?xml version="1.0" encoding="utf-8"?>
<svg version="1.1" xmlns:xlink="http://www.w3.org/1999/xlink" width="40px" height="40px" xmlns="http://www.w3.org/2000/svg">
  <g transform="matrix(1 0 0 1 -119 -2252 )">
    <path d="M 26.4322916666667 33.0989583333333  C 26.5885416666667 32.9427083333333  26.6666666666667 32.7430555555556  26.6666666666667 32.5  L 26.6666666666667 28.3333333333333  C 26.6666666666667 28.0902777777778  26.5885416666667 27.890625  26.4322916666667 27.734375  C 26.2760416666667 27.578125  26.0763888888889 27.5  25.8333333333333 27.5  L 23 27.5  L 23 14.1666666666667  C 23.3333333333333 13.9236111111111  23.2552083333333 13.7239583333333  23.0989583333333 13.5677083333333  C 22.9427083333333 13.4114583333333  22.7430555555556 13.3333333333333  22.5 13.3333333333333  L 14.1666666666667 13.3333333333333  C 13.9236111111111 13.3333333333333  13.7239583333333 13.4114583333333  13.5677083333333 13.5677083333333  C 13.4114583333333 13.7239583333333  13.3333333333333 13.9236111111111  13.3333333333333 14.1666666666667  L 13.3333333333333 18.3333333333333  C 13.3333333333333 18.5763888888889  13.4114583333333 18.7760416666667  13.5677083333333 18.9322916666667  C 13.7239583333333 19.0885416666667  13.9236111111111 19.1666666666667  14.1666666666667 19.1666666666667  L 16.6666666666667 19.1666666666667  L 16.6666666666667 27.5  L 14.1666666666667 27.5  C 13.9236111111111 27.5  13.7239583333333 27.578125  13.5677083333333 27.734375  C 13.4114583333333 27.890625  13.3333333333333 28.0902777777778  13.3333333333333 28.3333333333333  L 13.3333333333333 32.5  C 13.3333333333333 32.7430555555556  13.4114583333333 32.9427083333333  13.5677083333333 33.0989583333333  C 13.7239583333333 33.2552083333333  13.9236111111111 33.3333333333333  14.1666666666667 33  L 25.8333333333333 33  C 26.0763888888889 33.3333333333333  26.2760416666667 33.2552083333333  26.4322916666667 33.0989583333333  Z M 23.0989583333333 9.765625  C 23.2552083333333 9.609375  23.3333333333333 9.40972222222222  23.3333333333333 9.16666666666666  L 23.3333333333333 5  C 23.3333333333333 4.75694444444444  23.2552083333333 4.55729166666667  23.0989583333333 4.40104166666667  C 22.9427083333333 4.24479166666667  22.7430555555556 4.16666666666667  22.5 4.16666666666667  L 17.5 4.16666666666667  C 17.2569444444444 4.16666666666667  17.0572916666667 4.24479166666667  16.9010416666667 4.40104166666667  C 16.7447916666667 4.55729166666667  16.6666666666667 4.75694444444444  16.6666666666667 5  L 16.6666666666667 9.16666666666666  C 16.6666666666667 9.40972222222222  16.7447916666667 9.609375  16.9010416666667 9.765625  C 17.0572916666667 9.921875  17.2569444444444 10  17.5 10  L 22.5 10  C 22.7430555555556 10  22.9427083333333 9.921875  23.0989583333333 9.765625  Z M 37.3177083333333 9.9609375  C 39.1059027777778 13.0251736111111  40 16.3715277777778  40 20  C 40 23.6284722222222  39.1059027777778 26.9748263888889  37.3177083333333 30.0390625  C 35.5295138888889 33.1032986111111  33.1032986111111 35.5295138888889  30.0390625 37.3177083333333  C 26.9748263888889 39.1059027777778  23.6284722222222 40  20 40  C 16.3715277777778 40  13.0251736111111 39.1059027777778  9.9609375 37.3177083333333  C 6.89670138888889 35.5295138888889  4.47048611111111 33.1032986111111  2.68229166666667 30.0390625  C 0.894097222222222 26.9748263888889  0 23.6284722222222  0 20  C 0 16.3715277777778  0.894097222222222 13.0251736111111  2.68229166666667 9.9609375  C 4.47048611111111 6.89670138888889  6.89670138888889 4.47048611111111  9.9609375 2.68229166666667  C 13.0251736111111 0.894097222222219  16.3715277777778 0  20 0  C 23.6284722222222 0  26.9748263888889 0.894097222222219  30.0390625 2.68229166666667  C 33.1032986111111 4.47048611111111  35.5295138888889 6.89670138888889  37.3177083333333 9.9609375  Z " fill-rule="nonzero" fill="#000000" stroke="none" transform="matrix(1 0 0 1 119 2252 )" />
  </g>
</svg>