<?xml version="1.0" encoding="utf-8"?>
<svg version="1.1" xmlns:xlink="http://www.w3.org/1999/xlink" width="35px" height="35px" xmlns="http://www.w3.org/2000/svg">
  <g transform="matrix(1 0 0 1 -145 -1087 )">
    <path d="M 20.2115885416667 8.955078125  C 20.3483072916667 9.091796875  20.4166666666667 9.26649305555555  20 9.47916666666667  L 20 19.6875  C 20.4166666666667 19.9001736111111  20.3483072916667 20.0748697916667  20.2115885416667 20.2115885416667  C 20.0748697916667 20.3483072916667  19.9001736111111 20.4166666666667  19.6875 20.4166666666667  L 12.3958333333333 20.4166666666667  C 12.1831597222222 20.4166666666667  12.0084635416667 20.3483072916667  11.8717447916667 20.2115885416667  C 11.7350260416667 20.0748697916667  11.6666666666667 19.9001736111111  11.6666666666667 19.6875  L 11.6666666666667 18.2291666666667  C 11.6666666666667 18.0164930555556  11.7350260416667 17.841796875  11.8717447916667 17.705078125  C 12.0084635416667 17.568359375  12.1831597222222 17.5  12.3958333333333 17.5  L 17.5 17.5  L 17.5 9.47916666666667  C 17.5 9.26649305555555  17.568359375 9.091796875  17.705078125 8.955078125  C 17.841796875 8.818359375  18.0164930555556 8.75  18.2291666666667 8.75  L 19.6875 8.75  C 19.9001736111111 8.75  20.0748697916667 8.818359375  20.2115885416667 8.955078125  Z M 28.232421875 23.720703125  C 29.3413628472222 21.8218315972222  29.8958333333333 19.7482638888889  29.8958333333333 17.5  C 29.8958333333333 15.2517361111111  29.3413628472222 13.1781684027778  28.232421875 11.279296875  C 27.1234809027778 9.38042534722222  25.6195746527778 7.87651909722222  23.720703125 6.767578125  C 21.8218315972222 5.65863715277778  19.7482638888889 5.10416666666667  17.5 5.10416666666667  C 15.2517361111111 5.10416666666667  13.1781684027778 5.65863715277778  11.279296875 6.767578125  C 9.38042534722222 7.87651909722222  7.87651909722222 9.38042534722222  6.767578125 11.279296875  C 5.65863715277778 13.1781684027778  5.10416666666667 15.2517361111111  5.10416666666667 17.5  C 5.10416666666667 19.7482638888889  5.65863715277778 21.8218315972222  6.767578125 23.720703125  C 7.87651909722222 25.6195746527778  9.38042534722222 27.1234809027778  11.279296875 28.232421875  C 13.1781684027778 29.3413628472222  15.2517361111111 29.8958333333333  17.5 29.8958333333333  C 19.7482638888889 29.8958333333333  21.8218315972222 29.3413628472222  23.720703125 28.232421875  C 25.6195746527778 27.1234809027778  27.1234809027778 25.6195746527778  28.232421875 23.720703125  Z M 32.6529947916667 8.7158203125  C 34.2176649305556 11.3970269097222  35 14.3250868055556  35 17.5  C 35 20.6749131944444  34.2176649305556 23.6029730902778  32.6529947916667 26.2841796875  C 31.0883246527778 28.9653862847222  28.9653862847222 31.0883246527778  26.2841796875 32.6529947916667  C 23.6029730902778 34.2176649305556  20.6749131944444 35  17.5 35  C 14.3250868055556 35  11.3970269097222 34.2176649305556  8.7158203125 32.6529947916667  C 6.03461371527778 31.0883246527778  3.91167534722222 28.9653862847222  2.34700520833333 26.2841796875  C 0.782335069444444 23.6029730902778  0 20.6749131944444  0 17.5  C 0 14.3250868055556  0.782335069444444 11.3970269097222  2.34700520833333 8.7158203125  C 3.91167534722222 6.03461371527778  6.03461371527778 3.91167534722222  8.7158203125 2.34700520833333  C 11.3970269097222 0.782335069444441  14.3250868055556 0  17.5 0  C 20.6749131944444 0  23.6029730902778 0.782335069444441  26.2841796875 2.34700520833333  C 28.9653862847222 3.91167534722222  31.0883246527778 6.03461371527778  32.6529947916667 8.7158203125  Z " fill-rule="nonzero" fill="#4c4c4c" stroke="none" transform="matrix(1 0 0 1 145 1087 )" />
  </g>
</svg>