<?xml version="1.0" encoding="utf-8"?>
<svg version="1.1" xmlns:xlink="http://www.w3.org/1999/xlink" width="25px" height="30px" xmlns="http://www.w3.org/2000/svg">
  <g transform="matrix(1 0 0 1 -151 -1409 )">
    <path d="M 7.29166666666667 0  L 17.7083333333333 0  C 19.7157118055556 0  21.4328342013889 0.521763392857144  22.8597005208333 1.56529017857143  C 24.2865668402778 2.60881696428571  25 3.87276785714286  25 5.35714285714286  L 25 20.3571428571429  C 25 21.8080357142857  24.3191189236111 23.046875  22.9573567708333 24.0736607142857  C 21.5955946180556 25.1004464285714  19.9381510416667 25.6417410714286  17.9850260416667 25.6975446428571  L 21.4518229166667 29.0792410714286  C 21.6254340277778 29.2466517857143  21.6688368055556 29.4419642857143  21.58203125 29.6651785714286  C 21.4952256944444 29.8883928571429  21.3324652777778 30  21.09375 30  L 3.90625 30  C 3.66753472222222 30  3.50477430555556 29.8883928571429  3.41796875 29.6651785714286  C 3.33116319444444 29.4419642857143  3.37456597222222 29.2466517857143  3.54817708333333 29.0792410714286  L 7.01497395833333 25.6975446428571  C 5.06184895833333 25.6417410714286  3.40440538194444 25.1004464285714  2.04264322916667 24.0736607142857  C 0.680881076388889 23.046875  0 21.8080357142857  0 20.3571428571429  L 0 5.35714285714286  C 0 3.87276785714286  0.713433159722222 2.60881696428571  2.14029947916667 1.56529017857143  C 3.56716579861111 0.521763392857144  5.28428819444444 0  7.29166666666667 0  Z M 2.84830729166667 21.1774553571429  C 3.35828993055556 21.7020089285714  3.97135416666667 21.9642857142857  4.6875 21.9642857142857  C 5.40364583333333 21.9642857142857  6.01671006944444 21.7020089285714  6.52669270833333 21.1774553571429  C 7.03667534722222 20.6529017857143  7.29166666666667 20.0223214285714  7.29166666666667 19.2857142857143  C 7.29166666666667 18.5491071428571  7.03667534722222 17.9185267857143  6.52669270833333 17.3939732142857  C 6.01671006944444 16.8694196428571  5.40364583333333 16.6071428571429  4.6875 16.6071428571429  C 3.97135416666667 16.6071428571429  3.35828993055556 16.8694196428571  2.84830729166667 17.3939732142857  C 2.33832465277778 17.9185267857143  2.08333333333333 18.5491071428571  2.08333333333333 19.2857142857143  C 2.08333333333333 20.0223214285714  2.33832465277778 20.6529017857143  2.84830729166667 21.1774553571429  Z M 2.60416666666667 12.8571428571429  L 11.4583333333333 12.8571428571429  L 11.4583333333333 4.28571428571429  L 2.60416666666667 4.28571428571429  L 2.60416666666667 12.8571428571429  Z M 18.4733072916667 21.1774553571429  C 18.9832899305556 21.7020089285714  19.5963541666667 21.9642857142857  20.3125 21.9642857142857  C 21.0286458333333 21.9642857142857  21.6417100694444 21.7020089285714  22.1516927083333 21.1774553571429  C 22.6616753472222 20.6529017857143  22.9166666666667 20.0223214285714  22.9166666666667 19.2857142857143  C 22.9166666666667 18.5491071428571  22.6616753472222 17.9185267857143  22.1516927083333 17.3939732142857  C 21.6417100694444 16.8694196428571  21.0286458333333 16.6071428571429  20.3125 16.6071428571429  C 19.5963541666667 16.6071428571429  18.9832899305556 16.8694196428571  18.4733072916667 17.3939732142857  C 17.9633246527778 17.9185267857143  17.7083333333333 18.5491071428571  17.7083333333333 19.2857142857143  C 17.7083333333333 20.0223214285714  17.9633246527778 20.6529017857143  18.4733072916667 21.1774553571429  Z M 13.5416666666667 12.8571428571429  L 22.9166666666667 12.8571428571429  L 22.9166666666667 4.28571428571429  L 13.5416666666667 4.28571428571429  L 13.5416666666667 12.8571428571429  Z " fill-rule="nonzero" fill="#4c4c4c" stroke="none" transform="matrix(1 0 0 1 151 1409 )" />
  </g>
</svg>